<?xml version="1.0" encoding="utf-8" standalone="no"?>
<!DOCTYPE svg PUBLIC "-//W3C//DTD SVG 1.1//EN"
  "http://www.w3.org/Graphics/SVG/1.1/DTD/svg11.dtd">
<svg xmlns:xlink="http://www.w3.org/1999/xlink" width="720pt" height="432pt" viewBox="0 0 720 432" xmlns="http://www.w3.org/2000/svg" version="1.1">
 <metadata>
  <rdf:RDF xmlns:dc="http://purl.org/dc/elements/1.1/" xmlns:cc="http://creativecommons.org/ns#" xmlns:rdf="http://www.w3.org/1999/02/22-rdf-syntax-ns#">
   <cc:Work>
    <dc:type rdf:resource="http://purl.org/dc/dcmitype/StillImage"/>
    <dc:date>2026-05-31T12:51:28.689119</dc:date>
    <dc:format>image/svg+xml</dc:format>
    <dc:creator>
     <cc:Agent>
      <dc:title>Matplotlib v3.10.9, https://matplotlib.org/</dc:title>
     </cc:Agent>
    </dc:creator>
   </cc:Work>
  </rdf:RDF>
 </metadata>
 <defs>
  <style type="text/css">*{stroke-linejoin: round; stroke-linecap: butt}</style>
 </defs>
 <g id="figure_1">
  <g id="patch_1">
   <path d="M 0 432 
L 720 432 
L 720 0 
L 0 0 
z
" style="fill: #ffffff"/>
  </g>
  <g id="axes_1">
   <g id="patch_2">
    <path d="M 43.365 393.18 
L 709.2 393.18 
L 709.2 32.88 
L 43.365 32.88 
z
" style="fill: #ffffff"/>
   </g>
   <g id="matplotlib.axis_1">
    <g id="xtick_1">
     <g id="line2d_1">
      <path d="M 140.886288 393.18 
L 140.886288 32.88 
" clip-path="url(#p8ffc70d9ff)" style="fill: none; stroke: #cccccc; stroke-width: 0.8; stroke-linecap: round"/>
     </g>
     <g id="line2d_2"/>
     <g id="text_1">
      <!-- 10000 -->
      <g style="fill: #262626" transform="translate(126.983944 403.837812) scale(0.1 -0.1)">
       <defs>
        <path id="ArialMT-31" d="M 2384 0 
L 1822 0 
L 1822 3584 
Q 1619 3391 1289 3197 
Q 959 3003 697 2906 
L 697 3450 
Q 1169 3672 1522 3987 
Q 1875 4303 2022 4600 
L 2384 4600 
L 2384 0 
z
" transform="scale(0.015625)"/>
        <path id="ArialMT-30" d="M 266 2259 
Q 266 3072 433 3567 
Q 600 4063 929 4331 
Q 1259 4600 1759 4600 
Q 2128 4600 2406 4451 
Q 2684 4303 2865 4023 
Q 3047 3744 3150 3342 
Q 3253 2941 3253 2259 
Q 3253 1453 3087 958 
Q 2922 463 2592 192 
Q 2263 -78 1759 -78 
Q 1097 -78 719 397 
Q 266 969 266 2259 
z
M 844 2259 
Q 844 1131 1108 757 
Q 1372 384 1759 384 
Q 2147 384 2411 759 
Q 2675 1134 2675 2259 
Q 2675 3391 2411 3762 
Q 2147 4134 1753 4134 
Q 1366 4134 1134 3806 
Q 844 3388 844 2259 
z
" transform="scale(0.015625)"/>
       </defs>
       <use xlink:href="#ArialMT-31"/>
       <use xlink:href="#ArialMT-30" transform="translate(55.615234 0)"/>
       <use xlink:href="#ArialMT-30" transform="translate(111.230469 0)"/>
       <use xlink:href="#ArialMT-30" transform="translate(166.845703 0)"/>
       <use xlink:href="#ArialMT-30" transform="translate(222.460938 0)"/>
      </g>
     </g>
    </g>
    <g id="xtick_2">
     <g id="line2d_3">
      <path d="M 275.398409 393.18 
L 275.398409 32.88 
" clip-path="url(#p8ffc70d9ff)" style="fill: none; stroke: #cccccc; stroke-width: 0.8; stroke-linecap: round"/>
     </g>
     <g id="line2d_4"/>
     <g id="text_2">
      <!-- 20000 -->
      <g style="fill: #262626" transform="translate(261.496065 403.837812) scale(0.1 -0.1)">
       <defs>
        <path id="ArialMT-32" d="M 3222 541 
L 3222 0 
L 194 0 
Q 188 203 259 391 
Q 375 700 629 1000 
Q 884 1300 1366 1694 
Q 2113 2306 2375 2664 
Q 2638 3022 2638 3341 
Q 2638 3675 2398 3904 
Q 2159 4134 1775 4134 
Q 1369 4134 1125 3890 
Q 881 3647 878 3216 
L 300 3275 
Q 359 3922 746 4261 
Q 1134 4600 1788 4600 
Q 2447 4600 2831 4234 
Q 3216 3869 3216 3328 
Q 3216 3053 3103 2787 
Q 2991 2522 2730 2228 
Q 2469 1934 1863 1422 
Q 1356 997 1212 845 
Q 1069 694 975 541 
L 3222 541 
z
" transform="scale(0.015625)"/>
       </defs>
       <use xlink:href="#ArialMT-32"/>
       <use xlink:href="#ArialMT-30" transform="translate(55.615234 0)"/>
       <use xlink:href="#ArialMT-30" transform="translate(111.230469 0)"/>
       <use xlink:href="#ArialMT-30" transform="translate(166.845703 0)"/>
       <use xlink:href="#ArialMT-30" transform="translate(222.460938 0)"/>
      </g>
     </g>
    </g>
    <g id="xtick_3">
     <g id="line2d_5">
      <path d="M 409.91053 393.18 
L 409.91053 32.88 
" clip-path="url(#p8ffc70d9ff)" style="fill: none; stroke: #cccccc; stroke-width: 0.8; stroke-linecap: round"/>
     </g>
     <g id="line2d_6"/>
     <g id="text_3">
      <!-- 30000 -->
      <g style="fill: #262626" transform="translate(396.008187 403.837812) scale(0.1 -0.1)">
       <defs>
        <path id="ArialMT-33" d="M 269 1209 
L 831 1284 
Q 928 806 1161 595 
Q 1394 384 1728 384 
Q 2125 384 2398 659 
Q 2672 934 2672 1341 
Q 2672 1728 2419 1979 
Q 2166 2231 1775 2231 
Q 1616 2231 1378 2169 
L 1441 2663 
Q 1497 2656 1531 2656 
Q 1891 2656 2178 2843 
Q 2466 3031 2466 3422 
Q 2466 3731 2256 3934 
Q 2047 4138 1716 4138 
Q 1388 4138 1169 3931 
Q 950 3725 888 3313 
L 325 3413 
Q 428 3978 793 4289 
Q 1159 4600 1703 4600 
Q 2078 4600 2393 4439 
Q 2709 4278 2876 4000 
Q 3044 3722 3044 3409 
Q 3044 3113 2884 2869 
Q 2725 2625 2413 2481 
Q 2819 2388 3044 2092 
Q 3269 1797 3269 1353 
Q 3269 753 2831 336 
Q 2394 -81 1725 -81 
Q 1122 -81 723 278 
Q 325 638 269 1209 
z
" transform="scale(0.015625)"/>
       </defs>
       <use xlink:href="#ArialMT-33"/>
       <use xlink:href="#ArialMT-30" transform="translate(55.615234 0)"/>
       <use xlink:href="#ArialMT-30" transform="translate(111.230469 0)"/>
       <use xlink:href="#ArialMT-30" transform="translate(166.845703 0)"/>
       <use xlink:href="#ArialMT-30" transform="translate(222.460938 0)"/>
      </g>
     </g>
    </g>
    <g id="xtick_4">
     <g id="line2d_7">
      <path d="M 544.422652 393.18 
L 544.422652 32.88 
" clip-path="url(#p8ffc70d9ff)" style="fill: none; stroke: #cccccc; stroke-width: 0.8; stroke-linecap: round"/>
     </g>
     <g id="line2d_8"/>
     <g id="text_4">
      <!-- 40000 -->
      <g style="fill: #262626" transform="translate(530.520308 403.837812) scale(0.1 -0.1)">
       <defs>
        <path id="ArialMT-34" d="M 2069 0 
L 2069 1097 
L 81 1097 
L 81 1613 
L 2172 4581 
L 2631 4581 
L 2631 1613 
L 3250 1613 
L 3250 1097 
L 2631 1097 
L 2631 0 
L 2069 0 
z
M 2069 1613 
L 2069 3678 
L 634 1613 
L 2069 1613 
z
" transform="scale(0.015625)"/>
       </defs>
       <use xlink:href="#ArialMT-34"/>
       <use xlink:href="#ArialMT-30" transform="translate(55.615234 0)"/>
       <use xlink:href="#ArialMT-30" transform="translate(111.230469 0)"/>
       <use xlink:href="#ArialMT-30" transform="translate(166.845703 0)"/>
       <use xlink:href="#ArialMT-30" transform="translate(222.460938 0)"/>
      </g>
     </g>
    </g>
    <g id="xtick_5">
     <g id="line2d_9">
      <path d="M 678.934773 393.18 
L 678.934773 32.88 
" clip-path="url(#p8ffc70d9ff)" style="fill: none; stroke: #cccccc; stroke-width: 0.8; stroke-linecap: round"/>
     </g>
     <g id="line2d_10"/>
     <g id="text_5">
      <!-- 50000 -->
      <g style="fill: #262626" transform="translate(665.032429 403.837812) scale(0.1 -0.1)">
       <defs>
        <path id="ArialMT-35" d="M 266 1200 
L 856 1250 
Q 922 819 1161 601 
Q 1400 384 1738 384 
Q 2144 384 2425 690 
Q 2706 997 2706 1503 
Q 2706 1984 2436 2262 
Q 2166 2541 1728 2541 
Q 1456 2541 1237 2417 
Q 1019 2294 894 2097 
L 366 2166 
L 809 4519 
L 3088 4519 
L 3088 3981 
L 1259 3981 
L 1013 2750 
Q 1425 3038 1878 3038 
Q 2478 3038 2890 2622 
Q 3303 2206 3303 1553 
Q 3303 931 2941 478 
Q 2500 -78 1738 -78 
Q 1113 -78 717 272 
Q 322 622 266 1200 
z
" transform="scale(0.015625)"/>
       </defs>
       <use xlink:href="#ArialMT-35"/>
       <use xlink:href="#ArialMT-30" transform="translate(55.615234 0)"/>
       <use xlink:href="#ArialMT-30" transform="translate(111.230469 0)"/>
       <use xlink:href="#ArialMT-30" transform="translate(166.845703 0)"/>
       <use xlink:href="#ArialMT-30" transform="translate(222.460938 0)"/>
      </g>
     </g>
    </g>
    <g id="text_6">
     <!-- Число вставленных строк -->
     <g style="fill: #262626" transform="translate(304.681875 418.414687) scale(0.12 -0.12)">
      <defs>
       <path id="ArialMT-427" d="M 3763 0 
L 3156 0 
L 3156 1847 
Q 2341 1544 1728 1544 
Q 1250 1544 884 1767 
Q 519 1991 395 2334 
Q 272 2678 272 3234 
L 272 4581 
L 878 4581 
L 878 3291 
Q 878 2541 1151 2305 
Q 1425 2069 1809 2069 
Q 2450 2069 3156 2353 
L 3156 4581 
L 3763 4581 
L 3763 0 
z
" transform="scale(0.015625)"/>
       <path id="ArialMT-438" d="M 422 3319 
L 984 3319 
L 984 788 
L 2544 3319 
L 3150 3319 
L 3150 0 
L 2588 0 
L 2588 2516 
L 1028 0 
L 422 0 
L 422 3319 
z
" transform="scale(0.015625)"/>
       <path id="ArialMT-441" d="M 2588 1216 
L 3141 1144 
Q 3050 572 2676 248 
Q 2303 -75 1759 -75 
Q 1078 -75 664 370 
Q 250 816 250 1647 
Q 250 2184 428 2587 
Q 606 2991 970 3192 
Q 1334 3394 1763 3394 
Q 2303 3394 2647 3120 
Q 2991 2847 3088 2344 
L 2541 2259 
Q 2463 2594 2264 2762 
Q 2066 2931 1784 2931 
Q 1359 2931 1093 2626 
Q 828 2322 828 1663 
Q 828 994 1084 691 
Q 1341 388 1753 388 
Q 2084 388 2306 591 
Q 2528 794 2588 1216 
z
" transform="scale(0.015625)"/>
       <path id="ArialMT-43b" d="M 697 3319 
L 3309 3319 
L 3309 0 
L 2750 0 
L 2750 2853 
L 1259 2853 
L 1259 1200 
Q 1259 622 1221 437 
Q 1184 253 1015 115 
Q 847 -22 528 -22 
Q 331 -22 75 3 
L 75 472 
L 322 472 
Q 497 472 572 508 
Q 647 544 672 622 
Q 697 700 697 1131 
L 697 3319 
z
" transform="scale(0.015625)"/>
       <path id="ArialMT-43e" d="M 213 1659 
Q 213 2581 725 3025 
Q 1153 3394 1769 3394 
Q 2453 3394 2887 2945 
Q 3322 2497 3322 1706 
Q 3322 1066 3130 698 
Q 2938 331 2570 128 
Q 2203 -75 1769 -75 
Q 1072 -75 642 372 
Q 213 819 213 1659 
z
M 791 1659 
Q 791 1022 1069 705 
Q 1347 388 1769 388 
Q 2188 388 2466 706 
Q 2744 1025 2744 1678 
Q 2744 2294 2464 2611 
Q 2184 2928 1769 2928 
Q 1347 2928 1069 2612 
Q 791 2297 791 1659 
z
" transform="scale(0.015625)"/>
       <path id="ArialMT-20" transform="scale(0.015625)"/>
       <path id="ArialMT-432" d="M 425 3319 
L 1722 3319 
Q 2200 3319 2433 3239 
Q 2666 3159 2833 2946 
Q 3000 2734 3000 2438 
Q 3000 2200 2901 2023 
Q 2803 1847 2606 1728 
Q 2841 1650 2995 1436 
Q 3150 1222 3150 928 
Q 3119 456 2812 228 
Q 2506 0 1922 0 
L 425 0 
L 425 3319 
z
M 988 1922 
L 1588 1922 
Q 1947 1922 2081 1959 
Q 2216 1997 2322 2111 
Q 2428 2225 2428 2384 
Q 2428 2647 2242 2750 
Q 2056 2853 1606 2853 
L 988 2853 
L 988 1922 
z
M 988 463 
L 1728 463 
Q 2206 463 2384 573 
Q 2563 684 2572 956 
Q 2572 1116 2469 1252 
Q 2366 1388 2200 1423 
Q 2034 1459 1669 1459 
L 988 1459 
L 988 463 
z
" transform="scale(0.015625)"/>
       <path id="ArialMT-442" d="M 119 3319 
L 2816 3319 
L 2816 2853 
L 1747 2853 
L 1747 0 
L 1188 0 
L 1188 2853 
L 119 2853 
L 119 3319 
z
" transform="scale(0.015625)"/>
       <path id="ArialMT-430" d="M 2588 409 
Q 2275 144 1986 34 
Q 1697 -75 1366 -75 
Q 819 -75 525 192 
Q 231 459 231 875 
Q 231 1119 342 1320 
Q 453 1522 633 1644 
Q 813 1766 1038 1828 
Q 1203 1872 1538 1913 
Q 2219 1994 2541 2106 
Q 2544 2222 2544 2253 
Q 2544 2597 2384 2738 
Q 2169 2928 1744 2928 
Q 1347 2928 1158 2789 
Q 969 2650 878 2297 
L 328 2372 
Q 403 2725 575 2942 
Q 747 3159 1072 3276 
Q 1397 3394 1825 3394 
Q 2250 3394 2515 3294 
Q 2781 3194 2906 3042 
Q 3031 2891 3081 2659 
Q 3109 2516 3109 2141 
L 3109 1391 
Q 3109 606 3145 398 
Q 3181 191 3288 0 
L 2700 0 
Q 2613 175 2588 409 
z
M 2541 1666 
Q 2234 1541 1622 1453 
Q 1275 1403 1131 1340 
Q 988 1278 909 1158 
Q 831 1038 831 891 
Q 831 666 1001 516 
Q 1172 366 1500 366 
Q 1825 366 2078 508 
Q 2331 650 2450 897 
Q 2541 1088 2541 1459 
L 2541 1666 
z
" transform="scale(0.015625)"/>
       <path id="ArialMT-435" d="M 2694 1069 
L 3275 997 
Q 3138 488 2766 206 
Q 2394 -75 1816 -75 
Q 1088 -75 661 373 
Q 234 822 234 1631 
Q 234 2469 665 2931 
Q 1097 3394 1784 3394 
Q 2450 3394 2872 2941 
Q 3294 2488 3294 1666 
Q 3294 1616 3291 1516 
L 816 1516 
Q 847 969 1125 678 
Q 1403 388 1819 388 
Q 2128 388 2347 550 
Q 2566 713 2694 1069 
z
M 847 1978 
L 2700 1978 
Q 2663 2397 2488 2606 
Q 2219 2931 1791 2931 
Q 1403 2931 1139 2672 
Q 875 2413 847 1978 
z
" transform="scale(0.015625)"/>
       <path id="ArialMT-43d" d="M 425 3319 
L 988 3319 
L 988 1938 
L 2547 1938 
L 2547 3319 
L 3109 3319 
L 3109 0 
L 2547 0 
L 2547 1472 
L 988 1472 
L 988 0 
L 425 0 
L 425 3319 
z
" transform="scale(0.015625)"/>
       <path id="ArialMT-44b" d="M 3581 3319 
L 4144 3319 
L 4144 0 
L 3581 0 
L 3581 3319 
z
M 434 3319 
L 997 3319 
L 997 2022 
L 1709 2022 
Q 2406 2022 2782 1751 
Q 3159 1481 3159 1006 
Q 3159 591 2845 295 
Q 2531 0 1841 0 
L 434 0 
L 434 3319 
z
M 997 463 
L 1588 463 
Q 2122 463 2350 594 
Q 2578 725 2578 1003 
Q 2578 1219 2409 1387 
Q 2241 1556 1663 1556 
L 997 1556 
L 997 463 
z
" transform="scale(0.015625)"/>
       <path id="ArialMT-445" d="M 47 0 
L 1259 1725 
L 138 3319 
L 841 3319 
L 1350 2541 
Q 1494 2319 1581 2169 
Q 1719 2375 1834 2534 
L 2394 3319 
L 3066 3319 
L 1919 1756 
L 3153 0 
L 2463 0 
L 1781 1031 
L 1600 1309 
L 728 0 
L 47 0 
z
" transform="scale(0.015625)"/>
       <path id="ArialMT-440" d="M 422 -1272 
L 422 3319 
L 934 3319 
L 934 2888 
Q 1116 3141 1344 3267 
Q 1572 3394 1897 3394 
Q 2322 3394 2647 3175 
Q 2972 2956 3137 2557 
Q 3303 2159 3303 1684 
Q 3303 1175 3120 767 
Q 2938 359 2589 142 
Q 2241 -75 1856 -75 
Q 1575 -75 1351 44 
Q 1128 163 984 344 
L 984 -1272 
L 422 -1272 
z
M 931 1641 
Q 931 1000 1190 694 
Q 1450 388 1819 388 
Q 2194 388 2461 705 
Q 2728 1022 2728 1688 
Q 2728 2322 2467 2637 
Q 2206 2953 1844 2953 
Q 1484 2953 1207 2617 
Q 931 2281 931 1641 
z
" transform="scale(0.015625)"/>
       <path id="ArialMT-43a" d="M 419 3319 
L 981 3319 
L 981 1884 
Q 1250 1884 1358 1987 
Q 1466 2091 1675 2588 
Q 1841 2981 1944 3106 
Q 2047 3231 2181 3275 
Q 2316 3319 2613 3319 
L 2725 3319 
L 2725 2853 
L 2569 2856 
Q 2347 2856 2284 2791 
Q 2219 2722 2084 2381 
Q 1956 2056 1850 1931 
Q 1744 1806 1522 1703 
Q 1884 1606 2234 1028 
L 2850 0 
L 2231 0 
L 1631 1028 
Q 1447 1338 1309 1436 
Q 1172 1534 981 1534 
L 981 0 
L 419 0 
L 419 3319 
z
" transform="scale(0.015625)"/>
      </defs>
      <use xlink:href="#ArialMT-427"/>
      <use xlink:href="#ArialMT-438" transform="translate(66.650391 0)"/>
      <use xlink:href="#ArialMT-441" transform="translate(122.509766 0)"/>
      <use xlink:href="#ArialMT-43b" transform="translate(172.509766 0)"/>
      <use xlink:href="#ArialMT-43e" transform="translate(231.984375 0)"/>
      <use xlink:href="#ArialMT-20" transform="translate(287.599609 0)"/>
      <use xlink:href="#ArialMT-432" transform="translate(315.382812 0)"/>
      <use xlink:href="#ArialMT-441" transform="translate(367.382812 0)"/>
      <use xlink:href="#ArialMT-442" transform="translate(417.382812 0)"/>
      <use xlink:href="#ArialMT-430" transform="translate(462.058594 0)"/>
      <use xlink:href="#ArialMT-432" transform="translate(517.673828 0)"/>
      <use xlink:href="#ArialMT-43b" transform="translate(568.548828 0)"/>
      <use xlink:href="#ArialMT-435" transform="translate(626.898438 0)"/>
      <use xlink:href="#ArialMT-43d" transform="translate(682.513672 0)"/>
      <use xlink:href="#ArialMT-43d" transform="translate(737.738281 0)"/>
      <use xlink:href="#ArialMT-44b" transform="translate(792.962891 0)"/>
      <use xlink:href="#ArialMT-445" transform="translate(864.837891 0)"/>
      <use xlink:href="#ArialMT-20" transform="translate(914.837891 0)"/>
      <use xlink:href="#ArialMT-441" transform="translate(942.621094 0)"/>
      <use xlink:href="#ArialMT-442" transform="translate(992.621094 0)"/>
      <use xlink:href="#ArialMT-440" transform="translate(1038.421875 0)"/>
      <use xlink:href="#ArialMT-43e" transform="translate(1094.037109 0)"/>
      <use xlink:href="#ArialMT-43a" transform="translate(1149.652344 0)"/>
     </g>
    </g>
   </g>
   <g id="matplotlib.axis_2">
    <g id="ytick_1">
     <g id="line2d_11">
      <path d="M 43.365 386.274446 
L 709.2 386.274446 
" clip-path="url(#p8ffc70d9ff)" style="fill: none; stroke-dasharray: 2.96,1.28; stroke-dashoffset: 0; stroke: #cccccc; stroke-opacity: 0.4; stroke-width: 0.8"/>
     </g>
     <g id="line2d_12"/>
     <g id="text_7">
      <!-- 0.0 -->
      <g style="fill: #262626" transform="translate(25.965 389.853352) scale(0.1 -0.1)">
       <defs>
        <path id="ArialMT-2e" d="M 581 0 
L 581 641 
L 1222 641 
L 1222 0 
L 581 0 
z
" transform="scale(0.015625)"/>
       </defs>
       <use xlink:href="#ArialMT-30"/>
       <use xlink:href="#ArialMT-2e" transform="translate(55.615234 0)"/>
       <use xlink:href="#ArialMT-30" transform="translate(83.398438 0)"/>
      </g>
     </g>
    </g>
    <g id="ytick_2">
     <g id="line2d_13">
      <path d="M 43.365 325.891342 
L 709.2 325.891342 
" clip-path="url(#p8ffc70d9ff)" style="fill: none; stroke-dasharray: 2.96,1.28; stroke-dashoffset: 0; stroke: #cccccc; stroke-opacity: 0.4; stroke-width: 0.8"/>
     </g>
     <g id="line2d_14"/>
     <g id="text_8">
      <!-- 0.2 -->
      <g style="fill: #262626" transform="translate(25.965 329.470248) scale(0.1 -0.1)">
       <use xlink:href="#ArialMT-30"/>
       <use xlink:href="#ArialMT-2e" transform="translate(55.615234 0)"/>
       <use xlink:href="#ArialMT-32" transform="translate(83.398438 0)"/>
      </g>
     </g>
    </g>
    <g id="ytick_3">
     <g id="line2d_15">
      <path d="M 43.365 265.508238 
L 709.2 265.508238 
" clip-path="url(#p8ffc70d9ff)" style="fill: none; stroke-dasharray: 2.96,1.28; stroke-dashoffset: 0; stroke: #cccccc; stroke-opacity: 0.4; stroke-width: 0.8"/>
     </g>
     <g id="line2d_16"/>
     <g id="text_9">
      <!-- 0.4 -->
      <g style="fill: #262626" transform="translate(25.965 269.087145) scale(0.1 -0.1)">
       <use xlink:href="#ArialMT-30"/>
       <use xlink:href="#ArialMT-2e" transform="translate(55.615234 0)"/>
       <use xlink:href="#ArialMT-34" transform="translate(83.398438 0)"/>
      </g>
     </g>
    </g>
    <g id="ytick_4">
     <g id="line2d_17">
      <path d="M 43.365 205.125135 
L 709.2 205.125135 
" clip-path="url(#p8ffc70d9ff)" style="fill: none; stroke-dasharray: 2.96,1.28; stroke-dashoffset: 0; stroke: #cccccc; stroke-opacity: 0.4; stroke-width: 0.8"/>
     </g>
     <g id="line2d_18"/>
     <g id="text_10">
      <!-- 0.6 -->
      <g style="fill: #262626" transform="translate(25.965 208.704041) scale(0.1 -0.1)">
       <defs>
        <path id="ArialMT-36" d="M 3184 3459 
L 2625 3416 
Q 2550 3747 2413 3897 
Q 2184 4138 1850 4138 
Q 1581 4138 1378 3988 
Q 1113 3794 959 3422 
Q 806 3050 800 2363 
Q 1003 2672 1297 2822 
Q 1591 2972 1913 2972 
Q 2475 2972 2870 2558 
Q 3266 2144 3266 1488 
Q 3266 1056 3080 686 
Q 2894 316 2569 119 
Q 2244 -78 1831 -78 
Q 1128 -78 684 439 
Q 241 956 241 2144 
Q 241 3472 731 4075 
Q 1159 4600 1884 4600 
Q 2425 4600 2770 4297 
Q 3116 3994 3184 3459 
z
M 888 1484 
Q 888 1194 1011 928 
Q 1134 663 1356 523 
Q 1578 384 1822 384 
Q 2178 384 2434 671 
Q 2691 959 2691 1453 
Q 2691 1928 2437 2201 
Q 2184 2475 1800 2475 
Q 1419 2475 1153 2201 
Q 888 1928 888 1484 
z
" transform="scale(0.015625)"/>
       </defs>
       <use xlink:href="#ArialMT-30"/>
       <use xlink:href="#ArialMT-2e" transform="translate(55.615234 0)"/>
       <use xlink:href="#ArialMT-36" transform="translate(83.398438 0)"/>
      </g>
     </g>
    </g>
    <g id="ytick_5">
     <g id="line2d_19">
      <path d="M 43.365 144.742031 
L 709.2 144.742031 
" clip-path="url(#p8ffc70d9ff)" style="fill: none; stroke-dasharray: 2.96,1.28; stroke-dashoffset: 0; stroke: #cccccc; stroke-opacity: 0.4; stroke-width: 0.8"/>
     </g>
     <g id="line2d_20"/>
     <g id="text_11">
      <!-- 0.8 -->
      <g style="fill: #262626" transform="translate(25.965 148.320937) scale(0.1 -0.1)">
       <defs>
        <path id="ArialMT-38" d="M 1131 2484 
Q 781 2613 612 2850 
Q 444 3088 444 3419 
Q 444 3919 803 4259 
Q 1163 4600 1759 4600 
Q 2359 4600 2725 4251 
Q 3091 3903 3091 3403 
Q 3091 3084 2923 2848 
Q 2756 2613 2416 2484 
Q 2838 2347 3058 2040 
Q 3278 1734 3278 1309 
Q 3278 722 2862 322 
Q 2447 -78 1769 -78 
Q 1091 -78 675 323 
Q 259 725 259 1325 
Q 259 1772 486 2073 
Q 713 2375 1131 2484 
z
M 1019 3438 
Q 1019 3113 1228 2906 
Q 1438 2700 1772 2700 
Q 2097 2700 2305 2904 
Q 2513 3109 2513 3406 
Q 2513 3716 2298 3927 
Q 2084 4138 1766 4138 
Q 1444 4138 1231 3931 
Q 1019 3725 1019 3438 
z
M 838 1322 
Q 838 1081 952 856 
Q 1066 631 1291 507 
Q 1516 384 1775 384 
Q 2178 384 2440 643 
Q 2703 903 2703 1303 
Q 2703 1709 2433 1975 
Q 2163 2241 1756 2241 
Q 1359 2241 1098 1978 
Q 838 1716 838 1322 
z
" transform="scale(0.015625)"/>
       </defs>
       <use xlink:href="#ArialMT-30"/>
       <use xlink:href="#ArialMT-2e" transform="translate(55.615234 0)"/>
       <use xlink:href="#ArialMT-38" transform="translate(83.398438 0)"/>
      </g>
     </g>
    </g>
    <g id="ytick_6">
     <g id="line2d_21">
      <path d="M 43.365 84.358927 
L 709.2 84.358927 
" clip-path="url(#p8ffc70d9ff)" style="fill: none; stroke-dasharray: 2.96,1.28; stroke-dashoffset: 0; stroke: #cccccc; stroke-opacity: 0.4; stroke-width: 0.8"/>
     </g>
     <g id="line2d_22"/>
     <g id="text_12">
      <!-- 1.0 -->
      <g style="fill: #262626" transform="translate(25.965 87.937833) scale(0.1 -0.1)">
       <use xlink:href="#ArialMT-31"/>
       <use xlink:href="#ArialMT-2e" transform="translate(55.615234 0)"/>
       <use xlink:href="#ArialMT-30" transform="translate(83.398438 0)"/>
      </g>
     </g>
    </g>
    <g id="text_13">
     <!-- Время (наносекунды) -->
     <g style="fill: #262626" transform="translate(19.439375 273.196875) rotate(-90) scale(0.12 -0.12)">
      <defs>
       <path id="ArialMT-412" d="M 469 0 
L 469 4581 
L 2188 4581 
Q 2713 4581 3030 4442 
Q 3347 4303 3526 4014 
Q 3706 3725 3706 3409 
Q 3706 3116 3547 2856 
Q 3388 2597 3066 2438 
Q 3481 2316 3704 2022 
Q 3928 1728 3928 1328 
Q 3928 1006 3792 729 
Q 3656 453 3456 303 
Q 3256 153 2954 76 
Q 2653 0 2216 0 
L 469 0 
z
M 1075 2656 
L 2066 2656 
Q 2469 2656 2644 2709 
Q 2875 2778 2992 2937 
Q 3109 3097 3109 3338 
Q 3109 3566 3000 3739 
Q 2891 3913 2687 3977 
Q 2484 4041 1991 4041 
L 1075 4041 
L 1075 2656 
z
M 1075 541 
L 2216 541 
Q 2509 541 2628 563 
Q 2838 600 2978 687 
Q 3119 775 3209 942 
Q 3300 1109 3300 1328 
Q 3300 1584 3169 1773 
Q 3038 1963 2805 2039 
Q 2572 2116 2134 2116 
L 1075 2116 
L 1075 541 
z
" transform="scale(0.015625)"/>
       <path id="ArialMT-43c" d="M 438 3319 
L 1313 3319 
L 2184 663 
L 3153 3319 
L 3963 3319 
L 3963 0 
L 3400 0 
L 3400 2672 
L 2419 0 
L 1916 0 
L 988 2800 
L 988 0 
L 438 0 
L 438 3319 
z
" transform="scale(0.015625)"/>
       <path id="ArialMT-44f" d="M 3034 3319 
L 3034 0 
L 2475 0 
L 2475 1294 
L 2150 1294 
Q 1853 1294 1708 1217 
Q 1563 1141 1284 725 
L 794 0 
L 97 0 
L 703 894 
Q 981 1303 1256 1356 
Q 775 1422 542 1703 
Q 309 1984 309 2350 
Q 309 2781 614 3050 
Q 919 3319 1497 3319 
L 3034 3319 
z
M 2475 2853 
L 1675 2853 
Q 1172 2853 1026 2697 
Q 881 2541 881 2331 
Q 881 2034 1095 1895 
Q 1309 1756 1853 1756 
L 2475 1756 
L 2475 2853 
z
" transform="scale(0.015625)"/>
       <path id="ArialMT-28" d="M 1497 -1347 
Q 1031 -759 709 28 
Q 388 816 388 1659 
Q 388 2403 628 3084 
Q 909 3875 1497 4659 
L 1900 4659 
Q 1522 4009 1400 3731 
Q 1209 3300 1100 2831 
Q 966 2247 966 1656 
Q 966 153 1900 -1347 
L 1497 -1347 
z
" transform="scale(0.015625)"/>
       <path id="ArialMT-443" d="M 397 -1278 
L 334 -750 
Q 519 -800 656 -800 
Q 844 -800 956 -737 
Q 1069 -675 1141 -563 
Q 1194 -478 1313 -144 
Q 1328 -97 1363 -6 
L 103 3319 
L 709 3319 
L 1400 1397 
Q 1534 1031 1641 628 
Q 1738 1016 1872 1384 
L 2581 3319 
L 3144 3319 
L 1881 -56 
Q 1678 -603 1566 -809 
Q 1416 -1088 1222 -1217 
Q 1028 -1347 759 -1347 
Q 597 -1347 397 -1278 
z
" transform="scale(0.015625)"/>
       <path id="ArialMT-434" d="M 866 3319 
L 3178 3319 
L 3178 463 
L 3538 463 
L 3538 -941 
L 3075 -941 
L 3075 0 
L 463 0 
L 463 -941 
L 0 -941 
L 0 463 
L 297 463 
Q 891 1269 866 3319 
z
M 1334 2853 
Q 1272 1238 834 463 
L 2619 463 
L 2619 2853 
L 1334 2853 
z
" transform="scale(0.015625)"/>
       <path id="ArialMT-29" d="M 791 -1347 
L 388 -1347 
Q 1322 153 1322 1656 
Q 1322 2244 1188 2822 
Q 1081 3291 891 3722 
Q 769 4003 388 4659 
L 791 4659 
Q 1378 3875 1659 3084 
Q 1900 2403 1900 1659 
Q 1900 816 1576 28 
Q 1253 -759 791 -1347 
z
" transform="scale(0.015625)"/>
      </defs>
      <use xlink:href="#ArialMT-412"/>
      <use xlink:href="#ArialMT-440" transform="translate(66.699219 0)"/>
      <use xlink:href="#ArialMT-435" transform="translate(122.314453 0)"/>
      <use xlink:href="#ArialMT-43c" transform="translate(177.929688 0)"/>
      <use xlink:href="#ArialMT-44f" transform="translate(246.679688 0)"/>
      <use xlink:href="#ArialMT-20" transform="translate(300.830078 0)"/>
      <use xlink:href="#ArialMT-28" transform="translate(328.613281 0)"/>
      <use xlink:href="#ArialMT-43d" transform="translate(361.914062 0)"/>
      <use xlink:href="#ArialMT-430" transform="translate(417.138672 0)"/>
      <use xlink:href="#ArialMT-43d" transform="translate(472.753906 0)"/>
      <use xlink:href="#ArialMT-43e" transform="translate(527.978516 0)"/>
      <use xlink:href="#ArialMT-441" transform="translate(583.59375 0)"/>
      <use xlink:href="#ArialMT-435" transform="translate(633.59375 0)"/>
      <use xlink:href="#ArialMT-43a" transform="translate(689.208984 0)"/>
      <use xlink:href="#ArialMT-443" transform="translate(734.083984 0)"/>
      <use xlink:href="#ArialMT-43d" transform="translate(784.083984 0)"/>
      <use xlink:href="#ArialMT-434" transform="translate(839.308594 0)"/>
      <use xlink:href="#ArialMT-44b" transform="translate(897.658203 0)"/>
      <use xlink:href="#ArialMT-29" transform="translate(969.533203 0)"/>
     </g>
    </g>
    <g id="text_14">
     <!-- 1e9 -->
     <g style="fill: #262626" transform="translate(43.365 29.88) scale(0.1 -0.1)">
      <defs>
       <path id="ArialMT-65" d="M 2694 1069 
L 3275 997 
Q 3138 488 2766 206 
Q 2394 -75 1816 -75 
Q 1088 -75 661 373 
Q 234 822 234 1631 
Q 234 2469 665 2931 
Q 1097 3394 1784 3394 
Q 2450 3394 2872 2941 
Q 3294 2488 3294 1666 
Q 3294 1616 3291 1516 
L 816 1516 
Q 847 969 1125 678 
Q 1403 388 1819 388 
Q 2128 388 2347 550 
Q 2566 713 2694 1069 
z
M 847 1978 
L 2700 1978 
Q 2663 2397 2488 2606 
Q 2219 2931 1791 2931 
Q 1403 2931 1139 2672 
Q 875 2413 847 1978 
z
" transform="scale(0.015625)"/>
       <path id="ArialMT-39" d="M 350 1059 
L 891 1109 
Q 959 728 1153 556 
Q 1347 384 1650 384 
Q 1909 384 2104 503 
Q 2300 622 2425 820 
Q 2550 1019 2634 1356 
Q 2719 1694 2719 2044 
Q 2719 2081 2716 2156 
Q 2547 1888 2255 1720 
Q 1963 1553 1622 1553 
Q 1053 1553 659 1965 
Q 266 2378 266 3053 
Q 266 3750 677 4175 
Q 1088 4600 1706 4600 
Q 2153 4600 2523 4359 
Q 2894 4119 3086 3673 
Q 3278 3228 3278 2384 
Q 3278 1506 3087 986 
Q 2897 466 2520 194 
Q 2144 -78 1638 -78 
Q 1100 -78 759 220 
Q 419 519 350 1059 
z
M 2653 3081 
Q 2653 3566 2395 3850 
Q 2138 4134 1775 4134 
Q 1400 4134 1122 3828 
Q 844 3522 844 3034 
Q 844 2597 1108 2323 
Q 1372 2050 1759 2050 
Q 2150 2050 2401 2323 
Q 2653 2597 2653 3081 
z
" transform="scale(0.015625)"/>
      </defs>
      <use xlink:href="#ArialMT-31"/>
      <use xlink:href="#ArialMT-65" transform="translate(55.615234 0)"/>
      <use xlink:href="#ArialMT-39" transform="translate(111.230469 0)"/>
     </g>
    </g>
   </g>
   <g id="line2d_23">
    <path d="M 73.630227 375.774843 
L 140.886288 366.400631 
L 208.142348 354.789601 
L 275.398409 342.57693 
L 342.65447 331.147364 
L 409.91053 318.171891 
L 477.166591 305.850303 
L 544.422652 292.989294 
L 611.678712 280.141756 
L 678.934773 268.094158 
" clip-path="url(#p8ffc70d9ff)" style="fill: none; stroke: #4c78a8; stroke-width: 1.5; stroke-linecap: round"/>
    <defs>
     <path id="m3102c1ee9f" d="M 0 3 
C 0.795609 3 1.55874 2.683901 2.12132 2.12132 
C 2.683901 1.55874 3 0.795609 3 0 
C 3 -0.795609 2.683901 -1.55874 2.12132 -2.12132 
C 1.55874 -2.683901 0.795609 -3 0 -3 
C -0.795609 -3 -1.55874 -2.683901 -2.12132 -2.12132 
C -2.683901 -1.55874 -3 -0.795609 -3 0 
C -3 0.795609 -2.683901 1.55874 -2.12132 2.12132 
C -1.55874 2.683901 -0.795609 3 0 3 
z
" style="stroke: #4c78a8"/>
    </defs>
    <g clip-path="url(#p8ffc70d9ff)">
     <use xlink:href="#m3102c1ee9f" x="73.630227" y="375.774843" style="fill: #4c78a8; stroke: #4c78a8"/>
     <use xlink:href="#m3102c1ee9f" x="140.886288" y="366.400631" style="fill: #4c78a8; stroke: #4c78a8"/>
     <use xlink:href="#m3102c1ee9f" x="208.142348" y="354.789601" style="fill: #4c78a8; stroke: #4c78a8"/>
     <use xlink:href="#m3102c1ee9f" x="275.398409" y="342.57693" style="fill: #4c78a8; stroke: #4c78a8"/>
     <use xlink:href="#m3102c1ee9f" x="342.65447" y="331.147364" style="fill: #4c78a8; stroke: #4c78a8"/>
     <use xlink:href="#m3102c1ee9f" x="409.91053" y="318.171891" style="fill: #4c78a8; stroke: #4c78a8"/>
     <use xlink:href="#m3102c1ee9f" x="477.166591" y="305.850303" style="fill: #4c78a8; stroke: #4c78a8"/>
     <use xlink:href="#m3102c1ee9f" x="544.422652" y="292.989294" style="fill: #4c78a8; stroke: #4c78a8"/>
     <use xlink:href="#m3102c1ee9f" x="611.678712" y="280.141756" style="fill: #4c78a8; stroke: #4c78a8"/>
     <use xlink:href="#m3102c1ee9f" x="678.934773" y="268.094158" style="fill: #4c78a8; stroke: #4c78a8"/>
    </g>
   </g>
   <g id="line2d_24">
    <path d="M 73.630227 375.377346 
L 140.886288 363.625524 
L 208.142348 350.427689 
L 275.398409 337.025735 
L 342.65447 322.809162 
L 409.91053 308.152447 
L 477.166591 293.969814 
L 544.422652 279.849427 
L 611.678712 265.343896 
L 678.934773 250.574553 
" clip-path="url(#p8ffc70d9ff)" style="fill: none; stroke: #f58518; stroke-width: 1.5; stroke-linecap: round"/>
    <defs>
     <path id="m9f3034b35b" d="M -3 3 
L 3 3 
L 3 -3 
L -3 -3 
z
" style="stroke: #f58518; stroke-linejoin: miter"/>
    </defs>
    <g clip-path="url(#p8ffc70d9ff)">
     <use xlink:href="#m9f3034b35b" x="73.630227" y="375.377346" style="fill: #f58518; stroke: #f58518; stroke-linejoin: miter"/>
     <use xlink:href="#m9f3034b35b" x="140.886288" y="363.625524" style="fill: #f58518; stroke: #f58518; stroke-linejoin: miter"/>
     <use xlink:href="#m9f3034b35b" x="208.142348" y="350.427689" style="fill: #f58518; stroke: #f58518; stroke-linejoin: miter"/>
     <use xlink:href="#m9f3034b35b" x="275.398409" y="337.025735" style="fill: #f58518; stroke: #f58518; stroke-linejoin: miter"/>
     <use xlink:href="#m9f3034b35b" x="342.65447" y="322.809162" style="fill: #f58518; stroke: #f58518; stroke-linejoin: miter"/>
     <use xlink:href="#m9f3034b35b" x="409.91053" y="308.152447" style="fill: #f58518; stroke: #f58518; stroke-linejoin: miter"/>
     <use xlink:href="#m9f3034b35b" x="477.166591" y="293.969814" style="fill: #f58518; stroke: #f58518; stroke-linejoin: miter"/>
     <use xlink:href="#m9f3034b35b" x="544.422652" y="279.849427" style="fill: #f58518; stroke: #f58518; stroke-linejoin: miter"/>
     <use xlink:href="#m9f3034b35b" x="611.678712" y="265.343896" style="fill: #f58518; stroke: #f58518; stroke-linejoin: miter"/>
     <use xlink:href="#m9f3034b35b" x="678.934773" y="250.574553" style="fill: #f58518; stroke: #f58518; stroke-linejoin: miter"/>
    </g>
   </g>
   <g id="line2d_25">
    <path d="M 73.630227 371.015057 
L 140.886288 354.430095 
L 208.142348 336.195379 
L 275.398409 317.537026 
L 342.65447 298.992645 
L 409.91053 279.652238 
L 477.166591 261.311374 
L 544.422652 221.272507 
L 611.678712 203.096904 
L 678.934773 182.906807 
" clip-path="url(#p8ffc70d9ff)" style="fill: none; stroke: #54a24b; stroke-width: 1.5; stroke-linecap: round"/>
    <defs>
     <path id="m3590eaed35" d="M 0 -3 
L -3 3 
L 3 3 
z
" style="stroke: #54a24b; stroke-linejoin: miter"/>
    </defs>
    <g clip-path="url(#p8ffc70d9ff)">
     <use xlink:href="#m3590eaed35" x="73.630227" y="371.015057" style="fill: #54a24b; stroke: #54a24b; stroke-linejoin: miter"/>
     <use xlink:href="#m3590eaed35" x="140.886288" y="354.430095" style="fill: #54a24b; stroke: #54a24b; stroke-linejoin: miter"/>
     <use xlink:href="#m3590eaed35" x="208.142348" y="336.195379" style="fill: #54a24b; stroke: #54a24b; stroke-linejoin: miter"/>
     <use xlink:href="#m3590eaed35" x="275.398409" y="317.537026" style="fill: #54a24b; stroke: #54a24b; stroke-linejoin: miter"/>
     <use xlink:href="#m3590eaed35" x="342.65447" y="298.992645" style="fill: #54a24b; stroke: #54a24b; stroke-linejoin: miter"/>
     <use xlink:href="#m3590eaed35" x="409.91053" y="279.652238" style="fill: #54a24b; stroke: #54a24b; stroke-linejoin: miter"/>
     <use xlink:href="#m3590eaed35" x="477.166591" y="261.311374" style="fill: #54a24b; stroke: #54a24b; stroke-linejoin: miter"/>
     <use xlink:href="#m3590eaed35" x="544.422652" y="221.272507" style="fill: #54a24b; stroke: #54a24b; stroke-linejoin: miter"/>
     <use xlink:href="#m3590eaed35" x="611.678712" y="203.096904" style="fill: #54a24b; stroke: #54a24b; stroke-linejoin: miter"/>
     <use xlink:href="#m3590eaed35" x="678.934773" y="182.906807" style="fill: #54a24b; stroke: #54a24b; stroke-linejoin: miter"/>
    </g>
   </g>
   <g id="line2d_26">
    <path d="M 73.630227 359.836459 
L 140.886288 327.948733 
L 208.142348 294.512809 
L 275.398409 260.246606 
L 342.65447 225.953695 
L 409.91053 190.308341 
L 477.166591 156.004486 
L 544.422652 118.548784 
L 611.678712 80.111995 
L 678.934773 49.257273 
" clip-path="url(#p8ffc70d9ff)" style="fill: none; stroke: #e45756; stroke-width: 1.5; stroke-linecap: round"/>
    <defs>
     <path id="m08d642003b" d="M -0 4.242641 
L 4.242641 0 
L 0 -4.242641 
L -4.242641 -0 
z
" style="stroke: #e45756; stroke-linejoin: miter"/>
    </defs>
    <g clip-path="url(#p8ffc70d9ff)">
     <use xlink:href="#m08d642003b" x="73.630227" y="359.836459" style="fill: #e45756; stroke: #e45756; stroke-linejoin: miter"/>
     <use xlink:href="#m08d642003b" x="140.886288" y="327.948733" style="fill: #e45756; stroke: #e45756; stroke-linejoin: miter"/>
     <use xlink:href="#m08d642003b" x="208.142348" y="294.512809" style="fill: #e45756; stroke: #e45756; stroke-linejoin: miter"/>
     <use xlink:href="#m08d642003b" x="275.398409" y="260.246606" style="fill: #e45756; stroke: #e45756; stroke-linejoin: miter"/>
     <use xlink:href="#m08d642003b" x="342.65447" y="225.953695" style="fill: #e45756; stroke: #e45756; stroke-linejoin: miter"/>
     <use xlink:href="#m08d642003b" x="409.91053" y="190.308341" style="fill: #e45756; stroke: #e45756; stroke-linejoin: miter"/>
     <use xlink:href="#m08d642003b" x="477.166591" y="156.004486" style="fill: #e45756; stroke: #e45756; stroke-linejoin: miter"/>
     <use xlink:href="#m08d642003b" x="544.422652" y="118.548784" style="fill: #e45756; stroke: #e45756; stroke-linejoin: miter"/>
     <use xlink:href="#m08d642003b" x="611.678712" y="80.111995" style="fill: #e45756; stroke: #e45756; stroke-linejoin: miter"/>
     <use xlink:href="#m08d642003b" x="678.934773" y="49.257273" style="fill: #e45756; stroke: #e45756; stroke-linejoin: miter"/>
    </g>
   </g>
   <g id="line2d_27">
    <path d="M 73.630227 376.802727 
L 140.886288 366.183893 
L 208.142348 354.300184 
L 275.398409 342.068328 
L 342.65447 329.367082 
L 409.91053 316.091114 
L 477.166591 303.090355 
L 544.422652 289.449863 
L 611.678712 274.729959 
L 678.934773 262.658571 
" clip-path="url(#p8ffc70d9ff)" style="fill: none; stroke: #72b7b2; stroke-width: 1.5; stroke-linecap: round"/>
    <defs>
     <path id="m44b19ff6ff" d="M -1.5 3 
L 0 1.5 
L 1.5 3 
L 3 1.5 
L 1.5 0 
L 3 -1.5 
L 1.5 -3 
L 0 -1.5 
L -1.5 -3 
L -3 -1.5 
L -1.5 0 
L -3 1.5 
z
" style="stroke: #72b7b2; stroke-linejoin: miter"/>
    </defs>
    <g clip-path="url(#p8ffc70d9ff)">
     <use xlink:href="#m44b19ff6ff" x="73.630227" y="376.802727" style="fill: #72b7b2; stroke: #72b7b2; stroke-linejoin: miter"/>
     <use xlink:href="#m44b19ff6ff" x="140.886288" y="366.183893" style="fill: #72b7b2; stroke: #72b7b2; stroke-linejoin: miter"/>
     <use xlink:href="#m44b19ff6ff" x="208.142348" y="354.300184" style="fill: #72b7b2; stroke: #72b7b2; stroke-linejoin: miter"/>
     <use xlink:href="#m44b19ff6ff" x="275.398409" y="342.068328" style="fill: #72b7b2; stroke: #72b7b2; stroke-linejoin: miter"/>
     <use xlink:href="#m44b19ff6ff" x="342.65447" y="329.367082" style="fill: #72b7b2; stroke: #72b7b2; stroke-linejoin: miter"/>
     <use xlink:href="#m44b19ff6ff" x="409.91053" y="316.091114" style="fill: #72b7b2; stroke: #72b7b2; stroke-linejoin: miter"/>
     <use xlink:href="#m44b19ff6ff" x="477.166591" y="303.090355" style="fill: #72b7b2; stroke: #72b7b2; stroke-linejoin: miter"/>
     <use xlink:href="#m44b19ff6ff" x="544.422652" y="289.449863" style="fill: #72b7b2; stroke: #72b7b2; stroke-linejoin: miter"/>
     <use xlink:href="#m44b19ff6ff" x="611.678712" y="274.729959" style="fill: #72b7b2; stroke: #72b7b2; stroke-linejoin: miter"/>
     <use xlink:href="#m44b19ff6ff" x="678.934773" y="262.658571" style="fill: #72b7b2; stroke: #72b7b2; stroke-linejoin: miter"/>
    </g>
   </g>
   <g id="line2d_28">
    <path d="M 73.630227 376.792097 
L 140.886288 366.165212 
L 208.142348 354.203369 
L 275.398409 341.886109 
L 342.65447 328.220809 
L 409.91053 315.794759 
L 477.166591 302.450093 
L 544.422652 289.15864 
L 611.678712 277.293699 
L 678.934773 261.85535 
" clip-path="url(#p8ffc70d9ff)" style="fill: none; stroke: #4c78a8; stroke-width: 1.5; stroke-linecap: round"/>
    <defs>
     <path id="mfb23b48959" d="M -1 3 
L 1 3 
L 1 1 
L 3 1 
L 3 -1 
L 1 -1 
L 1 -3 
L -1 -3 
L -1 -1 
L -3 -1 
L -3 1 
L -1 1 
z
" style="stroke: #4c78a8; stroke-linejoin: miter"/>
    </defs>
    <g clip-path="url(#p8ffc70d9ff)">
     <use xlink:href="#mfb23b48959" x="73.630227" y="376.792097" style="fill: #4c78a8; stroke: #4c78a8; stroke-linejoin: miter"/>
     <use xlink:href="#mfb23b48959" x="140.886288" y="366.165212" style="fill: #4c78a8; stroke: #4c78a8; stroke-linejoin: miter"/>
     <use xlink:href="#mfb23b48959" x="208.142348" y="354.203369" style="fill: #4c78a8; stroke: #4c78a8; stroke-linejoin: miter"/>
     <use xlink:href="#mfb23b48959" x="275.398409" y="341.886109" style="fill: #4c78a8; stroke: #4c78a8; stroke-linejoin: miter"/>
     <use xlink:href="#mfb23b48959" x="342.65447" y="328.220809" style="fill: #4c78a8; stroke: #4c78a8; stroke-linejoin: miter"/>
     <use xlink:href="#mfb23b48959" x="409.91053" y="315.794759" style="fill: #4c78a8; stroke: #4c78a8; stroke-linejoin: miter"/>
     <use xlink:href="#mfb23b48959" x="477.166591" y="302.450093" style="fill: #4c78a8; stroke: #4c78a8; stroke-linejoin: miter"/>
     <use xlink:href="#mfb23b48959" x="544.422652" y="289.15864" style="fill: #4c78a8; stroke: #4c78a8; stroke-linejoin: miter"/>
     <use xlink:href="#mfb23b48959" x="611.678712" y="277.293699" style="fill: #4c78a8; stroke: #4c78a8; stroke-linejoin: miter"/>
     <use xlink:href="#mfb23b48959" x="678.934773" y="261.85535" style="fill: #4c78a8; stroke: #4c78a8; stroke-linejoin: miter"/>
    </g>
   </g>
   <g id="patch_3">
    <path d="M 43.365 393.18 
L 43.365 32.88 
" style="fill: none; stroke: #cccccc; stroke-linejoin: miter; stroke-linecap: square"/>
   </g>
   <g id="patch_4">
    <path d="M 709.2 393.18 
L 709.2 32.88 
" style="fill: none; stroke: #cccccc; stroke-linejoin: miter; stroke-linecap: square"/>
   </g>
   <g id="patch_5">
    <path d="M 43.365 393.18 
L 709.2 393.18 
" style="fill: none; stroke: #cccccc; stroke-linejoin: miter; stroke-linecap: square"/>
   </g>
   <g id="patch_6">
    <path d="M 43.365 32.88 
L 709.2 32.88 
" style="fill: none; stroke: #cccccc; stroke-linejoin: miter; stroke-linecap: square"/>
   </g>
   <g id="text_15">
    <!-- Время вставки по количеству строк -->
    <g style="fill: #262626" transform="translate(261.180625 20.88) scale(0.14 -0.14)">
     <defs>
      <path id="ArialMT-43f" d="M 425 3319 
L 3044 3319 
L 3044 0 
L 2481 0 
L 2481 2853 
L 988 2853 
L 988 0 
L 425 0 
L 425 3319 
z
" transform="scale(0.015625)"/>
      <path id="ArialMT-447" d="M 216 3319 
L 778 3319 
L 778 2691 
Q 778 2284 826 2101 
Q 875 1919 1059 1783 
Q 1244 1647 1522 1647 
Q 1841 1647 2347 1816 
L 2347 3319 
L 2909 3319 
L 2909 0 
L 2347 0 
L 2347 1338 
Q 1828 1175 1378 1175 
Q 1000 1175 711 1367 
Q 422 1559 319 1837 
Q 216 2116 216 2450 
L 216 3319 
z
" transform="scale(0.015625)"/>
     </defs>
     <use xlink:href="#ArialMT-412"/>
     <use xlink:href="#ArialMT-440" transform="translate(66.699219 0)"/>
     <use xlink:href="#ArialMT-435" transform="translate(122.314453 0)"/>
     <use xlink:href="#ArialMT-43c" transform="translate(177.929688 0)"/>
     <use xlink:href="#ArialMT-44f" transform="translate(246.679688 0)"/>
     <use xlink:href="#ArialMT-20" transform="translate(300.830078 0)"/>
     <use xlink:href="#ArialMT-432" transform="translate(328.613281 0)"/>
     <use xlink:href="#ArialMT-441" transform="translate(380.613281 0)"/>
     <use xlink:href="#ArialMT-442" transform="translate(430.613281 0)"/>
     <use xlink:href="#ArialMT-430" transform="translate(475.289062 0)"/>
     <use xlink:href="#ArialMT-432" transform="translate(530.904297 0)"/>
     <use xlink:href="#ArialMT-43a" transform="translate(584.029297 0)"/>
     <use xlink:href="#ArialMT-438" transform="translate(627.779297 0)"/>
     <use xlink:href="#ArialMT-20" transform="translate(683.638672 0)"/>
     <use xlink:href="#ArialMT-43f" transform="translate(711.421875 0)"/>
     <use xlink:href="#ArialMT-43e" transform="translate(765.572266 0)"/>
     <use xlink:href="#ArialMT-20" transform="translate(821.1875 0)"/>
     <use xlink:href="#ArialMT-43a" transform="translate(848.970703 0)"/>
     <use xlink:href="#ArialMT-43e" transform="translate(893.845703 0)"/>
     <use xlink:href="#ArialMT-43b" transform="translate(947.210938 0)"/>
     <use xlink:href="#ArialMT-438" transform="translate(1005.560547 0)"/>
     <use xlink:href="#ArialMT-447" transform="translate(1061.419922 0)"/>
     <use xlink:href="#ArialMT-435" transform="translate(1113.519531 0)"/>
     <use xlink:href="#ArialMT-441" transform="translate(1169.134766 0)"/>
     <use xlink:href="#ArialMT-442" transform="translate(1219.134766 0)"/>
     <use xlink:href="#ArialMT-432" transform="translate(1264.935547 0)"/>
     <use xlink:href="#ArialMT-443" transform="translate(1315.810547 0)"/>
     <use xlink:href="#ArialMT-20" transform="translate(1365.810547 0)"/>
     <use xlink:href="#ArialMT-441" transform="translate(1393.59375 0)"/>
     <use xlink:href="#ArialMT-442" transform="translate(1443.59375 0)"/>
     <use xlink:href="#ArialMT-440" transform="translate(1489.394531 0)"/>
     <use xlink:href="#ArialMT-43e" transform="translate(1545.009766 0)"/>
     <use xlink:href="#ArialMT-43a" transform="translate(1600.625 0)"/>
    </g>
   </g>
   <g id="legend_1">
    <g id="patch_7">
     <path d="M 50.365 140.131563 
L 122.9525 140.131563 
Q 124.9525 140.131563 124.9525 138.131563 
L 124.9525 39.88 
Q 124.9525 37.88 122.9525 37.88 
L 50.365 37.88 
Q 48.365 37.88 48.365 39.88 
L 48.365 138.131563 
Q 48.365 140.131563 50.365 140.131563 
z
" style="fill: #ffffff; opacity: 0.8; stroke: #cccccc; stroke-linejoin: miter"/>
    </g>
    <g id="text_16">
     <!-- Тип индекса -->
     <g style="fill: #262626" transform="translate(58.157969 49.037813) scale(0.1 -0.1)">
      <defs>
       <path id="ArialMT-422" d="M 1659 0 
L 1659 4041 
L 150 4041 
L 150 4581 
L 3781 4581 
L 3781 4041 
L 2266 4041 
L 2266 0 
L 1659 0 
z
" transform="scale(0.015625)"/>
      </defs>
      <use xlink:href="#ArialMT-422"/>
      <use xlink:href="#ArialMT-438" transform="translate(56.708984 0)"/>
      <use xlink:href="#ArialMT-43f" transform="translate(112.568359 0)"/>
      <use xlink:href="#ArialMT-20" transform="translate(166.71875 0)"/>
      <use xlink:href="#ArialMT-438" transform="translate(194.501953 0)"/>
      <use xlink:href="#ArialMT-43d" transform="translate(250.361328 0)"/>
      <use xlink:href="#ArialMT-434" transform="translate(305.585938 0)"/>
      <use xlink:href="#ArialMT-435" transform="translate(363.935547 0)"/>
      <use xlink:href="#ArialMT-43a" transform="translate(419.550781 0)"/>
      <use xlink:href="#ArialMT-441" transform="translate(464.425781 0)"/>
      <use xlink:href="#ArialMT-430" transform="translate(514.425781 0)"/>
     </g>
    </g>
    <g id="line2d_29">
     <path d="M 52.365 59.683125 
L 62.365 59.683125 
L 72.365 59.683125 
" style="fill: none; stroke: #4c78a8; stroke-width: 1.5; stroke-linecap: round"/>
     <g>
      <use xlink:href="#m3102c1ee9f" x="62.365" y="59.683125" style="fill: #4c78a8; stroke: #4c78a8"/>
     </g>
    </g>
    <g id="text_17">
     <!-- brin -->
     <g style="fill: #262626" transform="translate(80.365 63.183125) scale(0.1 -0.1)">
      <defs>
       <path id="ArialMT-62" d="M 941 0 
L 419 0 
L 419 4581 
L 981 4581 
L 981 2947 
Q 1338 3394 1891 3394 
Q 2197 3394 2470 3270 
Q 2744 3147 2920 2923 
Q 3097 2700 3197 2384 
Q 3297 2069 3297 1709 
Q 3297 856 2875 390 
Q 2453 -75 1863 -75 
Q 1275 -75 941 416 
L 941 0 
z
M 934 1684 
Q 934 1088 1097 822 
Q 1363 388 1816 388 
Q 2184 388 2453 708 
Q 2722 1028 2722 1663 
Q 2722 2313 2464 2622 
Q 2206 2931 1841 2931 
Q 1472 2931 1203 2611 
Q 934 2291 934 1684 
z
" transform="scale(0.015625)"/>
       <path id="ArialMT-72" d="M 416 0 
L 416 3319 
L 922 3319 
L 922 2816 
Q 1116 3169 1280 3281 
Q 1444 3394 1641 3394 
Q 1925 3394 2219 3213 
L 2025 2691 
Q 1819 2813 1613 2813 
Q 1428 2813 1281 2702 
Q 1134 2591 1072 2394 
Q 978 2094 978 1738 
L 978 0 
L 416 0 
z
" transform="scale(0.015625)"/>
       <path id="ArialMT-69" d="M 425 3934 
L 425 4581 
L 988 4581 
L 988 3934 
L 425 3934 
z
M 425 0 
L 425 3319 
L 988 3319 
L 988 0 
L 425 0 
z
" transform="scale(0.015625)"/>
       <path id="ArialMT-6e" d="M 422 0 
L 422 3319 
L 928 3319 
L 928 2847 
Q 1294 3394 1984 3394 
Q 2284 3394 2536 3286 
Q 2788 3178 2913 3003 
Q 3038 2828 3088 2588 
Q 3119 2431 3119 2041 
L 3119 0 
L 2556 0 
L 2556 2019 
Q 2556 2363 2490 2533 
Q 2425 2703 2258 2804 
Q 2091 2906 1866 2906 
Q 1506 2906 1245 2678 
Q 984 2450 984 1813 
L 984 0 
L 422 0 
z
" transform="scale(0.015625)"/>
      </defs>
      <use xlink:href="#ArialMT-62"/>
      <use xlink:href="#ArialMT-72" transform="translate(55.615234 0)"/>
      <use xlink:href="#ArialMT-69" transform="translate(88.916016 0)"/>
      <use xlink:href="#ArialMT-6e" transform="translate(111.132812 0)"/>
     </g>
    </g>
    <g id="line2d_30">
     <path d="M 52.365 73.828438 
L 62.365 73.828438 
L 72.365 73.828438 
" style="fill: none; stroke: #f58518; stroke-width: 1.5; stroke-linecap: round"/>
     <g>
      <use xlink:href="#m9f3034b35b" x="62.365" y="73.828438" style="fill: #f58518; stroke: #f58518; stroke-linejoin: miter"/>
     </g>
    </g>
    <g id="text_18">
     <!-- btree -->
     <g style="fill: #262626" transform="translate(80.365 77.328438) scale(0.1 -0.1)">
      <defs>
       <path id="ArialMT-74" d="M 1650 503 
L 1731 6 
Q 1494 -44 1306 -44 
Q 1000 -44 831 53 
Q 663 150 594 308 
Q 525 466 525 972 
L 525 2881 
L 113 2881 
L 113 3319 
L 525 3319 
L 525 4141 
L 1084 4478 
L 1084 3319 
L 1650 3319 
L 1650 2881 
L 1084 2881 
L 1084 941 
Q 1084 700 1114 631 
Q 1144 563 1211 522 
Q 1278 481 1403 481 
Q 1497 481 1650 503 
z
" transform="scale(0.015625)"/>
      </defs>
      <use xlink:href="#ArialMT-62"/>
      <use xlink:href="#ArialMT-74" transform="translate(55.615234 0)"/>
      <use xlink:href="#ArialMT-72" transform="translate(83.398438 0)"/>
      <use xlink:href="#ArialMT-65" transform="translate(116.699219 0)"/>
      <use xlink:href="#ArialMT-65" transform="translate(172.314453 0)"/>
     </g>
    </g>
    <g id="line2d_31">
     <path d="M 52.365 87.97375 
L 62.365 87.97375 
L 72.365 87.97375 
" style="fill: none; stroke: #54a24b; stroke-width: 1.5; stroke-linecap: round"/>
     <g>
      <use xlink:href="#m3590eaed35" x="62.365" y="87.97375" style="fill: #54a24b; stroke: #54a24b; stroke-linejoin: miter"/>
     </g>
    </g>
    <g id="text_19">
     <!-- gin -->
     <g style="fill: #262626" transform="translate(80.365 91.47375) scale(0.1 -0.1)">
      <defs>
       <path id="ArialMT-67" d="M 319 -275 
L 866 -356 
Q 900 -609 1056 -725 
Q 1266 -881 1628 -881 
Q 2019 -881 2231 -725 
Q 2444 -569 2519 -288 
Q 2563 -116 2559 434 
Q 2191 0 1641 0 
Q 956 0 581 494 
Q 206 988 206 1678 
Q 206 2153 378 2554 
Q 550 2956 876 3175 
Q 1203 3394 1644 3394 
Q 2231 3394 2613 2919 
L 2613 3319 
L 3131 3319 
L 3131 450 
Q 3131 -325 2973 -648 
Q 2816 -972 2473 -1159 
Q 2131 -1347 1631 -1347 
Q 1038 -1347 672 -1080 
Q 306 -813 319 -275 
z
M 784 1719 
Q 784 1066 1043 766 
Q 1303 466 1694 466 
Q 2081 466 2343 764 
Q 2606 1063 2606 1700 
Q 2606 2309 2336 2618 
Q 2066 2928 1684 2928 
Q 1309 2928 1046 2623 
Q 784 2319 784 1719 
z
" transform="scale(0.015625)"/>
      </defs>
      <use xlink:href="#ArialMT-67"/>
      <use xlink:href="#ArialMT-69" transform="translate(55.615234 0)"/>
      <use xlink:href="#ArialMT-6e" transform="translate(77.832031 0)"/>
     </g>
    </g>
    <g id="line2d_32">
     <path d="M 52.365 102.23625 
L 62.365 102.23625 
L 72.365 102.23625 
" style="fill: none; stroke: #e45756; stroke-width: 1.5; stroke-linecap: round"/>
     <g>
      <use xlink:href="#m08d642003b" x="62.365" y="102.23625" style="fill: #e45756; stroke: #e45756; stroke-linejoin: miter"/>
     </g>
    </g>
    <g id="text_20">
     <!-- gist -->
     <g style="fill: #262626" transform="translate(80.365 105.73625) scale(0.1 -0.1)">
      <defs>
       <path id="ArialMT-73" d="M 197 991 
L 753 1078 
Q 800 744 1014 566 
Q 1228 388 1613 388 
Q 2000 388 2187 545 
Q 2375 703 2375 916 
Q 2375 1106 2209 1216 
Q 2094 1291 1634 1406 
Q 1016 1563 777 1677 
Q 538 1791 414 1992 
Q 291 2194 291 2438 
Q 291 2659 392 2848 
Q 494 3038 669 3163 
Q 800 3259 1026 3326 
Q 1253 3394 1513 3394 
Q 1903 3394 2198 3281 
Q 2494 3169 2634 2976 
Q 2775 2784 2828 2463 
L 2278 2388 
Q 2241 2644 2061 2787 
Q 1881 2931 1553 2931 
Q 1166 2931 1000 2803 
Q 834 2675 834 2503 
Q 834 2394 903 2306 
Q 972 2216 1119 2156 
Q 1203 2125 1616 2013 
Q 2213 1853 2448 1751 
Q 2684 1650 2818 1456 
Q 2953 1263 2953 975 
Q 2953 694 2789 445 
Q 2625 197 2315 61 
Q 2006 -75 1616 -75 
Q 969 -75 630 194 
Q 291 463 197 991 
z
" transform="scale(0.015625)"/>
      </defs>
      <use xlink:href="#ArialMT-67"/>
      <use xlink:href="#ArialMT-69" transform="translate(55.615234 0)"/>
      <use xlink:href="#ArialMT-73" transform="translate(77.832031 0)"/>
      <use xlink:href="#ArialMT-74" transform="translate(127.832031 0)"/>
     </g>
    </g>
    <g id="line2d_33">
     <path d="M 52.365 116.49875 
L 62.365 116.49875 
L 72.365 116.49875 
" style="fill: none; stroke: #72b7b2; stroke-width: 1.5; stroke-linecap: round"/>
     <g>
      <use xlink:href="#m44b19ff6ff" x="62.365" y="116.49875" style="fill: #72b7b2; stroke: #72b7b2; stroke-linejoin: miter"/>
     </g>
    </g>
    <g id="text_21">
     <!-- hash -->
     <g style="fill: #262626" transform="translate(80.365 119.99875) scale(0.1 -0.1)">
      <defs>
       <path id="ArialMT-68" d="M 422 0 
L 422 4581 
L 984 4581 
L 984 2938 
Q 1378 3394 1978 3394 
Q 2347 3394 2619 3248 
Q 2891 3103 3008 2847 
Q 3125 2591 3125 2103 
L 3125 0 
L 2563 0 
L 2563 2103 
Q 2563 2525 2380 2717 
Q 2197 2909 1863 2909 
Q 1613 2909 1392 2779 
Q 1172 2650 1078 2428 
Q 984 2206 984 1816 
L 984 0 
L 422 0 
z
" transform="scale(0.015625)"/>
       <path id="ArialMT-61" d="M 2588 409 
Q 2275 144 1986 34 
Q 1697 -75 1366 -75 
Q 819 -75 525 192 
Q 231 459 231 875 
Q 231 1119 342 1320 
Q 453 1522 633 1644 
Q 813 1766 1038 1828 
Q 1203 1872 1538 1913 
Q 2219 1994 2541 2106 
Q 2544 2222 2544 2253 
Q 2544 2597 2384 2738 
Q 2169 2928 1744 2928 
Q 1347 2928 1158 2789 
Q 969 2650 878 2297 
L 328 2372 
Q 403 2725 575 2942 
Q 747 3159 1072 3276 
Q 1397 3394 1825 3394 
Q 2250 3394 2515 3294 
Q 2781 3194 2906 3042 
Q 3031 2891 3081 2659 
Q 3109 2516 3109 2141 
L 3109 1391 
Q 3109 606 3145 398 
Q 3181 191 3288 0 
L 2700 0 
Q 2613 175 2588 409 
z
M 2541 1666 
Q 2234 1541 1622 1453 
Q 1275 1403 1131 1340 
Q 988 1278 909 1158 
Q 831 1038 831 891 
Q 831 666 1001 516 
Q 1172 366 1500 366 
Q 1825 366 2078 508 
Q 2331 650 2450 897 
Q 2541 1088 2541 1459 
L 2541 1666 
z
" transform="scale(0.015625)"/>
      </defs>
      <use xlink:href="#ArialMT-68"/>
      <use xlink:href="#ArialMT-61" transform="translate(55.615234 0)"/>
      <use xlink:href="#ArialMT-73" transform="translate(111.230469 0)"/>
      <use xlink:href="#ArialMT-68" transform="translate(161.230469 0)"/>
     </g>
    </g>
    <g id="line2d_34">
     <path d="M 52.365 130.644063 
L 62.365 130.644063 
L 72.365 130.644063 
" style="fill: none; stroke: #4c78a8; stroke-width: 1.5; stroke-linecap: round"/>
     <g>
      <use xlink:href="#mfb23b48959" x="62.365" y="130.644063" style="fill: #4c78a8; stroke: #4c78a8; stroke-linejoin: miter"/>
     </g>
    </g>
    <g id="text_22">
     <!-- no_index -->
     <g style="fill: #262626" transform="translate(80.365 134.144063) scale(0.1 -0.1)">
      <defs>
       <path id="ArialMT-6f" d="M 213 1659 
Q 213 2581 725 3025 
Q 1153 3394 1769 3394 
Q 2453 3394 2887 2945 
Q 3322 2497 3322 1706 
Q 3322 1066 3130 698 
Q 2938 331 2570 128 
Q 2203 -75 1769 -75 
Q 1072 -75 642 372 
Q 213 819 213 1659 
z
M 791 1659 
Q 791 1022 1069 705 
Q 1347 388 1769 388 
Q 2188 388 2466 706 
Q 2744 1025 2744 1678 
Q 2744 2294 2464 2611 
Q 2184 2928 1769 2928 
Q 1347 2928 1069 2612 
Q 791 2297 791 1659 
z
" transform="scale(0.015625)"/>
       <path id="ArialMT-5f" d="M -97 -1272 
L -97 -866 
L 3631 -866 
L 3631 -1272 
L -97 -1272 
z
" transform="scale(0.015625)"/>
       <path id="ArialMT-64" d="M 2575 0 
L 2575 419 
Q 2259 -75 1647 -75 
Q 1250 -75 917 144 
Q 584 363 401 755 
Q 219 1147 219 1656 
Q 219 2153 384 2558 
Q 550 2963 881 3178 
Q 1213 3394 1622 3394 
Q 1922 3394 2156 3267 
Q 2391 3141 2538 2938 
L 2538 4581 
L 3097 4581 
L 3097 0 
L 2575 0 
z
M 797 1656 
Q 797 1019 1065 703 
Q 1334 388 1700 388 
Q 2069 388 2326 689 
Q 2584 991 2584 1609 
Q 2584 2291 2321 2609 
Q 2059 2928 1675 2928 
Q 1300 2928 1048 2622 
Q 797 2316 797 1656 
z
" transform="scale(0.015625)"/>
       <path id="ArialMT-78" d="M 47 0 
L 1259 1725 
L 138 3319 
L 841 3319 
L 1350 2541 
Q 1494 2319 1581 2169 
Q 1719 2375 1834 2534 
L 2394 3319 
L 3066 3319 
L 1919 1756 
L 3153 0 
L 2463 0 
L 1781 1031 
L 1600 1309 
L 728 0 
L 47 0 
z
" transform="scale(0.015625)"/>
      </defs>
      <use xlink:href="#ArialMT-6e"/>
      <use xlink:href="#ArialMT-6f" transform="translate(55.615234 0)"/>
      <use xlink:href="#ArialMT-5f" transform="translate(111.230469 0)"/>
      <use xlink:href="#ArialMT-69" transform="translate(166.845703 0)"/>
      <use xlink:href="#ArialMT-6e" transform="translate(189.0625 0)"/>
      <use xlink:href="#ArialMT-64" transform="translate(244.677734 0)"/>
      <use xlink:href="#ArialMT-65" transform="translate(300.292969 0)"/>
      <use xlink:href="#ArialMT-78" transform="translate(355.908203 0)"/>
     </g>
    </g>
   </g>
  </g>
 </g>
 <defs>
  <clipPath id="p8ffc70d9ff">
   <rect x="43.365" y="32.88" width="665.835" height="360.3"/>
  </clipPath>
 </defs>
</svg>
