<svg xmlns="http://www.w3.org/2000/svg" xmlns:xlink="http://www.w3.org/1999/xlink" contentStyleType="text/css" data-diagram-type="DESCRIPTION" height="1237px" preserveAspectRatio="none" style="width:774px;height:1237px;background:#FFFFFF;" version="1.1" viewBox="0 0 774 1237" width="774px" zoomAndPan="magnify"><defs/><g><!--entity G--><g class="entity" data-entity="G" data-source-line="4" data-uid="ent0002" id="entity_G"><ellipse cx="53.2292" cy="1050.72" fill="#F1F1F1" rx="8" ry="8" style="stroke:#181818;stroke-width:0.5;"/><path d="M53.2292,1058.72 L53.2292,1085.72 M40.2292,1066.72 L66.2292,1066.72 M53.2292,1085.72 L40.2292,1100.72 M53.2292,1085.72 L66.2292,1100.72" fill="none" style="stroke:#181818;stroke-width:0.5;"/><text fill="#000000" font-family="sans-serif" font-size="14" lengthAdjust="spacing" textLength="36.8184" x="34.82" y="1115.7552">&#1043;&#1086;&#1089;&#1090;&#1100;</text></g><!--entity U--><g class="entity" data-entity="U" data-source-line="5" data-uid="ent0003" id="entity_U"><ellipse cx="53.2329" cy="707.72" fill="#F1F1F1" rx="8" ry="8" style="stroke:#181818;stroke-width:0.5;"/><path d="M53.2329,715.72 L53.2329,742.72 M40.2329,723.72 L66.2329,723.72 M53.2329,742.72 L40.2329,757.72 M53.2329,742.72 L66.2329,757.72" fill="none" style="stroke:#181818;stroke-width:0.5;"/><text fill="#000000" font-family="sans-serif" font-size="14" lengthAdjust="spacing" textLength="94.4658" x="6" y="772.7552">&#1055;&#1086;&#1083;&#1100;&#1079;&#1086;&#1074;&#1072;&#1090;&#1077;&#1083;&#1100;</text></g><!--entity A--><g class="entity" data-entity="A" data-source-line="6" data-uid="ent0004" id="entity_A"><ellipse cx="53.2357" cy="239.72" fill="#F1F1F1" rx="8" ry="8" style="stroke:#181818;stroke-width:0.5;"/><path d="M53.2357,247.72 L53.2357,274.72 M40.2357,255.72 L66.2357,255.72 M53.2357,274.72 L40.2357,289.72 M53.2357,274.72 L66.2357,289.72" fill="none" style="stroke:#181818;stroke-width:0.5;"/><text fill="#000000" font-family="sans-serif" font-size="14" lengthAdjust="spacing" textLength="46.7715" x="29.85" y="304.7552">&#1040;&#1076;&#1084;&#1080;&#1085;</text></g><!--entity UC1--><g class="entity" data-entity="UC1" data-source-line="8" data-uid="ent0005" id="entity_UC1"><ellipse cx="701.5875" cy="1080.4595" fill="#F1F1F1" rx="67.1475" ry="15.8295" style="stroke:#181818;stroke-width:0.5;"/><text fill="#000000" font-family="sans-serif" font-size="14" lengthAdjust="spacing" textLength="98.3008" x="652.4372" y="1085.2036">&#1055;&#1088;&#1086;&#1089;&#1084;&#1086;&#1090;&#1088; &#1080;&#1075;&#1088;</text></g><!--entity UC2--><g class="entity" data-entity="UC2" data-source-line="9" data-uid="ent0006" id="entity_UC2"><ellipse cx="260.6783" cy="1216.4557" fill="#F1F1F1" rx="62.9783" ry="14.9957" style="stroke:#181818;stroke-width:0.5;"/><text fill="#000000" font-family="sans-serif" font-size="14" lengthAdjust="spacing" textLength="87.1377" x="217.1094" y="1221.1998">&#1056;&#1077;&#1075;&#1080;&#1089;&#1090;&#1088;&#1072;&#1094;&#1080;&#1103;</text></g><!--entity UC4--><g class="entity" data-entity="UC4" data-source-line="10" data-uid="ent0007" id="entity_UC4"><ellipse cx="497.6692" cy="1046.4578" fill="#F1F1F1" rx="64.4892" ry="15.2978" style="stroke:#181818;stroke-width:0.5;"/><text fill="#000000" font-family="sans-serif" font-size="14" lengthAdjust="spacing" textLength="91.2529" x="452.0427" y="1051.202">&#1055;&#1086;&#1080;&#1089;&#1082; &#1084;&#1086;&#1076;&#1086;&#1074;</text></g><!--entity UC5--><g class="entity" data-entity="UC5" data-source-line="11" data-uid="ent0008" id="entity_UC5"><ellipse cx="260.6767" cy="737.4573" fill="#F1F1F1" rx="63.5367" ry="15.1073" style="stroke:#181818;stroke-width:0.5;"/><text fill="#000000" font-family="sans-serif" font-size="14" lengthAdjust="spacing" textLength="88.6689" x="216.3422" y="742.2015">&#1057;&#1086;&#1079;&#1076;&#1072;&#1090;&#1100; &#1084;&#1086;&#1076;</text></g><!--entity UC3--><g class="entity" data-entity="UC3" data-source-line="12" data-uid="ent0009" id="entity_UC3"><ellipse cx="260.6815" cy="1080.4563" fill="#F1F1F1" rx="62.8815" ry="14.9763" style="stroke:#181818;stroke-width:0.5;"/><text fill="#000000" font-family="sans-serif" font-size="14" lengthAdjust="spacing" textLength="86.8711" x="217.2459" y="1085.2004">&#1057;&#1082;&#1072;&#1095;&#1072;&#1090;&#1100; &#1084;&#1086;&#1076;</text></g><!--entity UC11--><g class="entity" data-entity="UC11" data-source-line="13" data-uid="ent0010" id="entity_UC11"><ellipse cx="260.6844" cy="594.4609" fill="#F1F1F1" rx="67.5044" ry="15.9009" style="stroke:#181818;stroke-width:0.5;"/><text fill="#000000" font-family="sans-serif" font-size="14" lengthAdjust="spacing" textLength="99.2305" x="211.0692" y="599.205">&#1054;&#1073;&#1085;&#1086;&#1074;&#1080;&#1090;&#1100; &#1084;&#1086;&#1076;</text></g><!--entity UC6--><g class="entity" data-entity="UC6" data-source-line="14" data-uid="ent0011" id="entity_UC6"><ellipse cx="260.6788" cy="805.4618" fill="#F1F1F1" rx="77.3088" ry="17.8618" style="stroke:#181818;stroke-width:0.5;"/><text fill="#000000" font-family="sans-serif" font-size="14" lengthAdjust="spacing" textLength="123.6553" x="198.8512" y="810.2059">&#1047;&#1072;&#1075;&#1088;&#1091;&#1079;&#1080;&#1090;&#1100; &#1074;&#1077;&#1088;&#1089;&#1080;&#1102;</text></g><!--entity UC12--><g class="entity" data-entity="UC12" data-source-line="15" data-uid="ent0012" id="entity_UC12"><ellipse cx="497.6711" cy="907.4582" fill="#F1F1F1" rx="72.8411" ry="16.9682" style="stroke:#181818;stroke-width:0.5;"/><text fill="#000000" font-family="sans-serif" font-size="14" lengthAdjust="spacing" textLength="112.7588" x="441.2917" y="912.2024">&#1059;&#1076;&#1072;&#1083;&#1080;&#1090;&#1100; &#1074;&#1077;&#1088;&#1089;&#1080;&#1102;</text></g><!--entity UC18--><g class="entity" data-entity="UC18" data-source-line="16" data-uid="ent0013" id="entity_UC18"><ellipse cx="260.6805" cy="873.4581" fill="#F1F1F1" rx="63.8905" ry="15.1781" style="stroke:#181818;stroke-width:0.5;"/><text fill="#000000" font-family="sans-serif" font-size="14" lengthAdjust="spacing" textLength="89.6328" x="215.8641" y="878.2022">&#1059;&#1076;&#1072;&#1083;&#1080;&#1090;&#1100; &#1084;&#1086;&#1076;</text></g><!--entity UC13--><g class="entity" data-entity="UC13" data-source-line="17" data-uid="ent0014" id="entity_UC13"><ellipse cx="497.6694" cy="520.4639" fill="#F1F1F1" rx="76.7694" ry="17.7539" style="stroke:#181818;stroke-width:0.5;"/><text fill="#000000" font-family="sans-serif" font-size="14" lengthAdjust="spacing" textLength="122.3564" x="436.4912" y="525.208">&#1054;&#1073;&#1085;&#1086;&#1074;&#1080;&#1090;&#1100; &#1074;&#1077;&#1088;&#1089;&#1080;&#1102;</text></g><!--entity UC7--><g class="entity" data-entity="UC7" data-source-line="18" data-uid="ent0015" id="entity_UC7"><ellipse cx="260.6774" cy="666.4555" fill="#F1F1F1" rx="93.6774" ry="21.1355" style="stroke:#181818;stroke-width:0.5;"/><text fill="#000000" font-family="sans-serif" font-size="14" lengthAdjust="spacing" textLength="161.5332" x="179.9108" y="671.1996">&#1054;&#1089;&#1090;&#1072;&#1074;&#1080;&#1090;&#1100; &#1082;&#1086;&#1084;&#1084;&#1077;&#1085;&#1090;&#1072;&#1088;&#1080;&#1081;</text></g><!--entity UC8--><g class="entity" data-entity="UC8" data-source-line="19" data-uid="ent0016" id="entity_UC8"><ellipse cx="260.6783" cy="521.4637" fill="#F1F1F1" rx="100.2183" ry="22.4437" style="stroke:#181818;stroke-width:0.5;"/><text fill="#000000" font-family="sans-serif" font-size="14" lengthAdjust="spacing" textLength="176.0938" x="172.6314" y="526.2078">&#1052;&#1086;&#1076;&#1077;&#1088;&#1072;&#1094;&#1080;&#1103; &#1085;&#1086;&#1074;&#1099;&#1093; &#1084;&#1086;&#1076;&#1086;&#1074;</text></g><!--entity UC9--><g class="entity" data-entity="UC9" data-source-line="20" data-uid="ent0017" id="entity_UC9"><ellipse cx="260.6781" cy="302.4596" fill="#F1F1F1" rx="68.4981" ry="16.0996" style="stroke:#181818;stroke-width:0.5;"/><text fill="#000000" font-family="sans-serif" font-size="14" lengthAdjust="spacing" textLength="101.8008" x="209.7777" y="307.2038">&#1044;&#1086;&#1073;&#1072;&#1074;&#1080;&#1090;&#1100; &#1080;&#1075;&#1088;&#1091;</text></g><!--entity UC10--><g class="entity" data-entity="UC10" data-source-line="21" data-uid="ent0018" id="entity_UC10"><ellipse cx="260.6773" cy="373.4575" fill="#F1F1F1" rx="86.2373" ry="19.6475" style="stroke:#181818;stroke-width:0.5;"/><text fill="#000000" font-family="sans-serif" font-size="14" lengthAdjust="spacing" textLength="144.6279" x="188.3634" y="378.2016">&#1044;&#1086;&#1073;&#1072;&#1074;&#1080;&#1090;&#1100; &#1082;&#1072;&#1090;&#1077;&#1075;&#1086;&#1088;&#1080;&#1102;</text></g><!--entity UC14--><g class="entity" data-entity="UC14" data-source-line="22" data-uid="ent0019" id="entity_UC14"><ellipse cx="260.6777" cy="21.4615" fill="#F1F1F1" rx="65.3077" ry="15.4615" style="stroke:#181818;stroke-width:0.5;"/><text fill="#000000" font-family="sans-serif" font-size="14" lengthAdjust="spacing" textLength="93.4473" x="213.954" y="26.2057">&#1059;&#1076;&#1072;&#1083;&#1080;&#1090;&#1100; &#1080;&#1075;&#1088;&#1091;</text></g><!--entity UC15--><g class="entity" data-entity="UC15" data-source-line="23" data-uid="ent0020" id="entity_UC15"><ellipse cx="260.6756" cy="90.4571" fill="#F1F1F1" rx="82.6356" ry="18.9271" style="stroke:#181818;stroke-width:0.5;"/><text fill="#000000" font-family="sans-serif" font-size="14" lengthAdjust="spacing" textLength="136.2744" x="192.5384" y="95.2013">&#1059;&#1076;&#1072;&#1083;&#1080;&#1090;&#1100; &#1082;&#1072;&#1090;&#1077;&#1075;&#1086;&#1088;&#1080;&#1102;</text></g><!--entity UC16--><g class="entity" data-entity="UC16" data-source-line="24" data-uid="ent0021" id="entity_UC16"><ellipse cx="260.6783" cy="164.4557" fill="#F1F1F1" rx="86.7783" ry="19.7557" style="stroke:#181818;stroke-width:0.5;"/><text fill="#000000" font-family="sans-serif" font-size="14" lengthAdjust="spacing" textLength="145.8721" x="187.7423" y="169.1998">&#1054;&#1073;&#1085;&#1086;&#1074;&#1080;&#1090;&#1100; &#1082;&#1072;&#1090;&#1077;&#1075;&#1086;&#1088;&#1080;&#1102;</text></g><!--entity UC17--><g class="entity" data-entity="UC17" data-source-line="25" data-uid="ent0022" id="entity_UC17"><ellipse cx="260.6827" cy="235.4565" fill="#F1F1F1" rx="68.9827" ry="16.1965" style="stroke:#181818;stroke-width:0.5;"/><text fill="#000000" font-family="sans-serif" font-size="14" lengthAdjust="spacing" textLength="103.0449" x="209.1602" y="240.2007">&#1054;&#1073;&#1085;&#1086;&#1074;&#1080;&#1090;&#1100; &#1080;&#1075;&#1088;&#1091;</text></g><!--link UC3 to UC4--><g class="link" data-entity-1="UC3" data-entity-2="UC4" data-source-line="27" data-uid="lnk23" id="link_UC3_UC4"><path d="M315.3,1072.71 C353.09,1067.24 397.612,1060.8003 435.712,1055.2803" fill="none" id="UC3-to-UC4" style="stroke:#181818;stroke-width:1;stroke-dasharray:7,7;"/><polygon fill="#181818" points="441.65,1054.42,432.1695,1051.7518,436.7017,1055.1369,433.3165,1059.6691,441.65,1054.42" style="stroke:#181818;stroke-width:1;"/></g><!--link UC4 to UC1--><g class="link" data-entity-1="UC4" data-entity-2="UC1" data-source-line="28" data-uid="lnk24" id="link_UC4_UC1"><path d="M551.2,1055.31 C580.29,1060.21 610.5034,1065.2932 639.9434,1070.2532" fill="none" id="UC4-to-UC1" style="stroke:#181818;stroke-width:1;stroke-dasharray:7,7;"/><polygon fill="#181818" points="645.86,1071.25,637.6496,1065.8104,640.9295,1070.4193,636.3205,1073.6992,645.86,1071.25" style="stroke:#181818;stroke-width:1;"/></g><!--link UC8 to UC4--><g class="link" data-entity-1="UC8" data-entity-2="UC4" data-source-line="29" data-uid="lnk25" id="link_UC8_UC4"><path d="M310.71,541.23 C335.71,551.31 360.9,561.46 360.9,561.46 C360.9,561.46 420.9,941.46 420.9,941.46 C420.9,941.46 460.9099,996.8939 481.9799,1026.1039" fill="none" id="UC8-to-UC4" style="stroke:#181818;stroke-width:1;stroke-dasharray:7,7;"/><polygon fill="#181818" points="485.49,1030.97,483.469,1021.3307,482.5649,1026.9149,476.9808,1026.0108,485.49,1030.97" style="stroke:#181818;stroke-width:1;"/></g><!--link UC5 to UC6--><g class="link" data-entity-1="UC5" data-entity-2="UC6" data-source-line="30" data-uid="lnk26" id="link_UC5_UC6"><path d="M260.68,752.96 C260.68,756.94 260.68,760.13 260.68,760.13 C260.68,760.13 260.68,782.8 260.68,782.8 C260.68,782.8 260.68,778.59 260.68,781.17" fill="none" id="UC5-to-UC6" style="stroke:#181818;stroke-width:1;"/><polygon fill="#181818" points="260.68,787.17,264.68,778.17,260.68,782.17,256.68,778.17,260.68,787.17" style="stroke:#181818;stroke-width:1;"/></g><!--link UC11 to UC13--><g class="link" data-entity-1="UC11" data-entity-2="UC13" data-source-line="31" data-uid="lnk27" id="link_UC11_UC13"><path d="M302.62,581.57 C344.04,568.53 402.2172,550.2126 445.2672,536.6526" fill="none" id="UC11-to-UC13" style="stroke:#181818;stroke-width:1;stroke-dasharray:7,7;"/><polygon fill="#181818" points="450.99,534.85,441.204,533.7387,446.221,536.3522,443.6075,541.3691,450.99,534.85" style="stroke:#181818;stroke-width:1;"/></g><!--link UC18 to UC12--><g class="link" data-entity-1="UC18" data-entity-2="UC12" data-source-line="32" data-uid="lnk28" id="link_UC18_UC12"><path d="M316.19,881.35 C351.71,886.49 392.2017,892.3516 429.0717,897.6816" fill="none" id="UC18-to-UC12" style="stroke:#181818;stroke-width:1;"/><polygon fill="#181818" points="435.01,898.54,426.6749,893.2935,430.0614,897.8246,425.5303,901.2112,435.01,898.54" style="stroke:#181818;stroke-width:1;"/></g><!--link G to UC1--><g class="link" data-entity-1="G" data-entity-2="UC1" data-source-line="34" data-uid="lnk29" id="link_G_UC1"><path d="M71.78,1085.75 C101.95,1094.84 160.47,1112.46 160.47,1112.46 C160.47,1112.46 360.9,1112.46 360.9,1112.46 C360.9,1112.46 534.7264,1096.0927 632.7064,1086.8627" fill="none" id="G-to-UC1" style="stroke:#181818;stroke-width:1;"/><polygon fill="#181818" points="638.68,1086.3,629.3445,1083.1617,633.702,1086.7689,630.0948,1091.1265,638.68,1086.3" style="stroke:#181818;stroke-width:1;"/></g><!--link G to UC4--><g class="link" data-entity-1="G" data-entity-2="UC4" data-source-line="35" data-uid="lnk30" id="link_G_UC4"><path d="M71.78,1075.18 C101.95,1066.09 160.47,1048.46 160.47,1048.46 C160.47,1048.46 329.5701,1047.4557 427.0401,1046.8757" fill="none" id="G-to-UC4" style="stroke:#181818;stroke-width:1;"/><polygon fill="#181818" points="433.04,1046.84,424.0164,1042.8936,428.0401,1046.8698,424.064,1050.8935,433.04,1046.84" style="stroke:#181818;stroke-width:1;"/></g><!--link G to UC3--><g class="link" data-entity-1="G" data-entity-2="UC3" data-source-line="36" data-uid="lnk31" id="link_G_UC3"><path d="M72.11,1080.46 C99.83,1080.46 148.51,1080.46 191.72,1080.46" fill="none" id="G-to-UC3" style="stroke:#181818;stroke-width:1;"/><polygon fill="#181818" points="197.72,1080.46,188.72,1076.46,192.72,1080.46,188.72,1084.46,197.72,1080.46" style="stroke:#181818;stroke-width:1;"/></g><!--link G to UC2--><g class="link" data-entity-1="G" data-entity-2="UC2" data-source-line="37" data-uid="lnk32" id="link_G_UC2"><path d="M71.78,1095.99 C101.95,1122.69 160.47,1174.46 160.47,1174.46 C160.47,1174.46 193.695,1188.5304 222.765,1200.8404" fill="none" id="G-to-UC2" style="stroke:#181818;stroke-width:1;"/><polygon fill="#181818" points="228.29,1203.18,221.5622,1195.9872,223.6858,1201.2303,218.4427,1203.3539,228.29,1203.18" style="stroke:#181818;stroke-width:1;"/></g><!--link U to UC5--><g class="link" data-entity-1="U" data-entity-2="UC5" data-source-line="39" data-uid="lnk33" id="link_U_UC5"><path d="M100.85,737.46 C129.27,737.46 159.94,737.46 190.89,737.46" fill="none" id="U-to-UC5" style="stroke:#181818;stroke-width:1;"/><polygon fill="#181818" points="196.89,737.46,187.89,733.46,191.89,737.46,187.89,741.46,196.89,737.46" style="stroke:#181818;stroke-width:1;"/></g><!--link U to UC6--><g class="link" data-entity-1="U" data-entity-2="UC6" data-source-line="40" data-uid="lnk34" id="link_U_UC6"><path d="M100.85,752.89 C135.07,764.22 175.5639,777.6248 209.3139,788.7948" fill="none" id="U-to-UC6" style="stroke:#181818;stroke-width:1;"/><polygon fill="#181818" points="215.01,790.68,207.7226,784.0548,210.2632,789.109,205.209,791.6496,215.01,790.68" style="stroke:#181818;stroke-width:1;"/></g><!--link U to UC11--><g class="link" data-entity-1="U" data-entity-2="UC11" data-source-line="41" data-uid="lnk35" id="link_U_UC11"><path d="M91.39,698.99 C122.02,667.27 160.47,627.46 160.47,627.46 C160.47,627.46 186.8265,618.693 214.4965,609.493" fill="none" id="U-to-UC11" style="stroke:#181818;stroke-width:1;"/><polygon fill="#181818" points="220.19,607.6,210.3877,606.6439,215.4454,609.1775,212.9117,614.2353,220.19,607.6" style="stroke:#181818;stroke-width:1;"/></g><!--link U to UC12--><g class="link" data-entity-1="U" data-entity-2="UC12" data-source-line="42" data-uid="lnk36" id="link_U_UC12"><path d="M78.34,775.81 C109.68,825.68 160.47,906.46 160.47,906.46 C160.47,906.46 319.76,906.9424 418.55,907.2324" fill="none" id="U-to-UC12" style="stroke:#181818;stroke-width:1;"/><polygon fill="#181818" points="424.55,907.25,415.5618,903.2236,419.55,907.2353,415.5383,911.2236,424.55,907.25" style="stroke:#181818;stroke-width:1;"/></g><!--link U to UC13--><g class="link" data-entity-1="U" data-entity-2="UC13" data-source-line="43" data-uid="lnk37" id="link_U_UC13"><path d="M70.25,698.86 C99.93,627.35 160.47,481.46 160.47,481.46 C160.47,481.46 360.9,481.46 360.9,481.46 C360.9,481.46 403.3132,493.6437 442.2732,504.8337" fill="none" id="U-to-UC13" style="stroke:#181818;stroke-width:1;"/><polygon fill="#181818" points="448.04,506.49,440.494,500.1609,443.2343,505.1097,438.2855,507.8501,448.04,506.49" style="stroke:#181818;stroke-width:1;"/></g><!--link U to UC7--><g class="link" data-entity-1="U" data-entity-2="UC7" data-source-line="44" data-uid="lnk38" id="link_U_UC7"><path d="M100.85,721.35 C132.82,710.31 169.5691,697.6097 202.5291,686.2197" fill="none" id="U-to-UC7" style="stroke:#181818;stroke-width:1;"/><polygon fill="#181818" points="208.2,684.26,198.3871,683.4189,203.4742,685.8931,201.0001,690.9802,208.2,684.26" style="stroke:#181818;stroke-width:1;"/></g><!--link U to UC18--><g class="link" data-entity-1="U" data-entity-2="UC18" data-source-line="45" data-uid="lnk39" id="link_U_UC18"><path d="M94.09,776.11 C124.24,805.34 160.47,840.46 160.47,840.46 C160.47,840.46 188.3871,849.7451 216.4771,859.0951" fill="none" id="U-to-UC18" style="stroke:#181818;stroke-width:1;"/><polygon fill="#181818" points="222.17,860.99,214.8939,854.3523,217.4259,859.4109,212.3673,861.9429,222.17,860.99" style="stroke:#181818;stroke-width:1;"/></g><!--link A to UC8--><g class="link" data-entity-1="A" data-entity-2="UC8" data-source-line="47" data-uid="lnk40" id="link_A_UC8"><path d="M77.02,299.71 C108.24,341.14 160.47,410.46 160.47,410.46 C160.47,410.46 206.8916,462.4065 235.8416,494.7965" fill="none" id="A-to-UC8" style="stroke:#181818;stroke-width:1;"/><polygon fill="#181818" points="239.84,499.27,236.8247,489.8941,236.508,495.542,230.86,495.2253,239.84,499.27" style="stroke:#181818;stroke-width:1;"/></g><!--link A to UC9--><g class="link" data-entity-1="A" data-entity-2="UC9" data-source-line="48" data-uid="lnk41" id="link_A_UC9"><path d="M77,273.12 C107.2,277.97 155.5857,285.7497 197.1657,292.4197" fill="none" id="A-to-UC9" style="stroke:#181818;stroke-width:1;"/><polygon fill="#181818" points="203.09,293.37,194.8372,287.995,198.1531,292.5781,193.5701,295.894,203.09,293.37" style="stroke:#181818;stroke-width:1;"/></g><!--link A to UC10--><g class="link" data-entity-1="A" data-entity-2="UC10" data-source-line="49" data-uid="lnk42" id="link_A_UC10"><path d="M77.02,283.84 C108.24,303.52 160.47,336.46 160.47,336.46 C160.47,336.46 182.4385,344.6527 208.5185,354.3827" fill="none" id="A-to-UC10" style="stroke:#181818;stroke-width:1;"/><polygon fill="#181818" points="214.14,356.48,207.1059,349.5864,209.4554,354.7323,204.3095,357.0817,214.14,356.48" style="stroke:#181818;stroke-width:1;"/></g><!--link A to UC14--><g class="link" data-entity-1="A" data-entity-2="UC14" data-source-line="50" data-uid="lnk43" id="link_A_UC14"><path d="M73.23,231.03 C103.78,169.19 160.47,54.46 160.47,54.46 C160.47,54.46 187.7069,45.4043 215.6269,36.1143" fill="none" id="A-to-UC14" style="stroke:#181818;stroke-width:1;"/><polygon fill="#181818" points="221.32,34.22,211.5175,33.266,216.5757,35.7986,214.0432,40.8569,221.32,34.22" style="stroke:#181818;stroke-width:1;"/></g><!--link A to UC15--><g class="link" data-entity-1="A" data-entity-2="UC15" data-source-line="51" data-uid="lnk44" id="link_A_UC15"><path d="M77.02,239 C108.24,197.28 160.47,127.46 160.47,127.46 C160.47,127.46 183.678,118.8061 210.258,108.8961" fill="none" id="A-to-UC15" style="stroke:#181818;stroke-width:1;"/><polygon fill="#181818" points="215.88,106.8,206.0497,106.1961,211.195,108.5467,208.8444,113.6921,215.88,106.8" style="stroke:#181818;stroke-width:1;"/></g><!--link A to UC16--><g class="link" data-entity-1="A" data-entity-2="UC16" data-source-line="52" data-uid="lnk45" id="link_A_UC16"><path d="M77.02,254.88 C108.24,234.9 160.47,201.46 160.47,201.46 C160.47,201.46 182.2278,193.3454 208.2278,183.6554" fill="none" id="A-to-UC16" style="stroke:#181818;stroke-width:1;"/><polygon fill="#181818" points="213.85,181.56,204.0197,180.9549,209.1648,183.3061,206.8136,188.4512,213.85,181.56" style="stroke:#181818;stroke-width:1;"/></g><!--link A to UC17--><g class="link" data-entity-1="A" data-entity-2="UC17" data-source-line="53" data-uid="lnk46" id="link_A_UC17"><path d="M77,265.7 C107.3,260.68 155.9705,252.6297 197.6005,245.7397" fill="none" id="A-to-UC17" style="stroke:#181818;stroke-width:1;"/><polygon fill="#181818" points="203.52,244.76,193.9877,242.2832,198.5871,245.5764,195.2939,250.1759,203.52,244.76" style="stroke:#181818;stroke-width:1;"/></g><!--link A to U--><g class="link" data-entity-1="A" data-entity-2="U" data-source-line="55" data-uid="lnk47" id="link_A_U"><path d="M53.23,308.03 C53.23,354.22 53.23,425.46 53.23,425.46 C53.23,425.46 53.23,581.46 53.23,581.46 C53.23,581.46 53.23,634.71 53.23,680.9" fill="none" id="A-to-U" style="stroke:#181818;stroke-width:1;"/><polygon fill="none" points="53.23,698.9,59.23,680.9,47.23,680.9,53.23,698.9" style="stroke:#181818;stroke-width:1;"/></g><!--link U to G--><g class="link" data-entity-1="U" data-entity-2="G" data-source-line="56" data-uid="lnk48" id="link_U_G"><path d="M53.23,776.17 C53.23,809.34 53.23,851.8 53.23,851.8 C53.23,851.8 53.23,966.13 53.23,966.13 C53.23,966.13 53.23,990.59 53.23,1023.76" fill="none" id="U-to-G" style="stroke:#181818;stroke-width:1;"/><polygon fill="none" points="53.23,1041.76,59.23,1023.76,47.23,1023.76,53.23,1041.76" style="stroke:#181818;stroke-width:1;"/></g><!--SRC=[VPFBJi9058RtynGJzX0BBPGD2N714_003LPjH21G5oGk2aPTIDH44pV6Itm1BX8gjsSuyqQUcOxJGIXfclvpvZl_d9avhRl7FlMRjEsTdFhqo6kxDTzhDaZdp6kqdBPpJkjUm_MxBPUsclKk7n3YrFnccwRW2TQin_fiaA9EXrPK_1tMi603cE5t34FMXoaV2wggg4VuXYM4i1BnCY4N7RVcT5nkm09kZTDhj0yeKXCMHFc7XWP-eFC4Gb55W2lTe7wGN5Otn4gGWZdbdhWm5YOnKyC-CJx3sI7Vb4GbPcrWSqHkTs4v3Nk34Qp44OJReA5lumM6V8Fi2bUNx1Yc6EZXy5vcvBM4BruaB99X8vjCRvHXxojuX-_61lcvexFYvvYyn6SAApw1LnB2ZymiQ8cluWwcyPNHQ5rsnwwtRqWlyHdZ8tt9C3euYHRteNFPYXFiga3Vqq7oMMtQ6sOocUXkxJlXnApylgn_LHK8mSwZcKn9z3E-KXkeRIrkqNHQ_EdfacWeteP_Q8wFR0HAKVkGofzMobGgfnI2LIajfV9AOPjNOqybSqeMug1DI5bgMwcYKdXDIfgnj6APZsL1U5sYvlxuhP1V]--></g></svg>